<?xml version="1.0" encoding="UTF-8" standalone="no"?>
<!DOCTYPE svg PUBLIC "-//W3C//DTD SVG 1.1//EN"
 "http://www.w3.org/Graphics/SVG/1.1/DTD/svg11.dtd">
<!-- Generated by graphviz version 13.1.1 (20250719.2154)
 -->
<!-- Title: dependency&#45;cruiser output Pages: 1 -->
<svg width="507pt" height="482pt"
 viewBox="0.00 0.00 507.00 482.00" xmlns="http://www.w3.org/2000/svg" xmlns:xlink="http://www.w3.org/1999/xlink">
<g id="graph0" class="graph" transform="scale(1 1) rotate(0) translate(4 477.56)">
<title>dependency&#45;cruiser output</title>
<polygon fill="white" stroke="none" points="-4,4 -4,-477.56 502.75,-477.56 502.75,4 -4,4"/>
<g id="clust1" class="cluster">
<title>cluster_public</title>
<path fill="#ffffff" stroke="black" stroke-width="2" d="M20,-18.56C20,-18.56 478.75,-18.56 478.75,-18.56 484.75,-18.56 490.75,-24.56 490.75,-30.56 490.75,-30.56 490.75,-453.56 490.75,-453.56 490.75,-459.56 484.75,-465.56 478.75,-465.56 478.75,-465.56 20,-465.56 20,-465.56 14,-465.56 8,-459.56 8,-453.56 8,-453.56 8,-30.56 8,-30.56 8,-24.56 14,-18.56 20,-18.56"/>
<text xml:space="preserve" text-anchor="middle" x="249.38" y="-453.01" font-family="Helvetica,sans-Serif" font-weight="bold" font-size="9.00">public</text>
</g>
<g id="clust2" class="cluster">
<title>cluster_public/src</title>
<path fill="#ffffff" stroke="black" stroke-width="2" d="M28,-26.56C28,-26.56 470.75,-26.56 470.75,-26.56 476.75,-26.56 482.75,-32.56 482.75,-38.56 482.75,-38.56 482.75,-426.56 482.75,-426.56 482.75,-432.56 476.75,-438.56 470.75,-438.56 470.75,-438.56 28,-438.56 28,-438.56 22,-438.56 16,-432.56 16,-426.56 16,-426.56 16,-38.56 16,-38.56 16,-32.56 22,-26.56 28,-26.56"/>
<text xml:space="preserve" text-anchor="middle" x="249.38" y="-426.01" font-family="Helvetica,sans-Serif" font-weight="bold" font-size="9.00">src</text>
</g>
<g id="clust3" class="cluster">
<title>cluster_public/src/api</title>
<path fill="#ffffff" stroke="black" stroke-width="2" d="M146.5,-358.56C146.5,-358.56 330,-358.56 330,-358.56 336,-358.56 342,-364.56 342,-370.56 342,-370.56 342,-399.56 342,-399.56 342,-405.56 336,-411.56 330,-411.56 330,-411.56 146.5,-411.56 146.5,-411.56 140.5,-411.56 134.5,-405.56 134.5,-399.56 134.5,-399.56 134.5,-370.56 134.5,-370.56 134.5,-364.56 140.5,-358.56 146.5,-358.56"/>
<text xml:space="preserve" text-anchor="middle" x="238.25" y="-399.01" font-family="Helvetica,sans-Serif" font-weight="bold" font-size="9.00">api</text>
</g>
<g id="clust4" class="cluster">
<title>cluster_public/src/core</title>
<path fill="#ffffff" stroke="black" stroke-width="2" d="M172.12,-185.56C172.12,-185.56 330,-185.56 330,-185.56 336,-185.56 342,-191.56 342,-197.56 342,-197.56 342,-257.56 342,-257.56 342,-263.56 336,-269.56 330,-269.56 330,-269.56 172.12,-269.56 172.12,-269.56 166.12,-269.56 160.12,-263.56 160.12,-257.56 160.12,-257.56 160.12,-197.56 160.12,-197.56 160.12,-191.56 166.12,-185.56 172.12,-185.56"/>
<text xml:space="preserve" text-anchor="middle" x="251.06" y="-257.01" font-family="Helvetica,sans-Serif" font-weight="bold" font-size="9.00">core</text>
</g>
<g id="clust5" class="cluster">
<title>cluster_public/src/events</title>
<path fill="#ffffff" stroke="black" stroke-width="2" d="M36,-173.56C36,-173.56 114.5,-173.56 114.5,-173.56 120.5,-173.56 126.5,-179.56 126.5,-185.56 126.5,-185.56 126.5,-214.56 126.5,-214.56 126.5,-220.56 120.5,-226.56 114.5,-226.56 114.5,-226.56 36,-226.56 36,-226.56 30,-226.56 24,-220.56 24,-214.56 24,-214.56 24,-185.56 24,-185.56 24,-179.56 30,-173.56 36,-173.56"/>
<text xml:space="preserve" text-anchor="middle" x="75.25" y="-214.01" font-family="Helvetica,sans-Serif" font-weight="bold" font-size="9.00">events</text>
</g>
<g id="clust6" class="cluster">
<title>cluster_public/src/file&#45;system</title>
<path fill="#ffffff" stroke="black" stroke-width="2" d="M167.88,-297.56C167.88,-297.56 341,-297.56 341,-297.56 347,-297.56 353,-303.56 353,-309.56 353,-309.56 353,-338.56 353,-338.56 353,-344.56 347,-350.56 341,-350.56 341,-350.56 167.88,-350.56 167.88,-350.56 161.88,-350.56 155.88,-344.56 155.88,-338.56 155.88,-338.56 155.88,-309.56 155.88,-309.56 155.88,-303.56 161.88,-297.56 167.88,-297.56"/>
<text xml:space="preserve" text-anchor="middle" x="254.44" y="-338.01" font-family="Helvetica,sans-Serif" font-weight="bold" font-size="9.00">file&#45;system</text>
</g>
<g id="clust7" class="cluster">
<title>cluster_public/src/migration</title>
<path fill="#ffffff" stroke="black" stroke-width="2" d="M39.75,-299.56C39.75,-299.56 110.75,-299.56 110.75,-299.56 116.75,-299.56 122.75,-305.56 122.75,-311.56 122.75,-311.56 122.75,-340.56 122.75,-340.56 122.75,-346.56 116.75,-352.56 110.75,-352.56 110.75,-352.56 39.75,-352.56 39.75,-352.56 33.75,-352.56 27.75,-346.56 27.75,-340.56 27.75,-340.56 27.75,-311.56 27.75,-311.56 27.75,-305.56 33.75,-299.56 39.75,-299.56"/>
<text xml:space="preserve" text-anchor="middle" x="75.25" y="-340.01" font-family="Helvetica,sans-Serif" font-weight="bold" font-size="9.00">migration</text>
</g>
<g id="clust8" class="cluster">
<title>cluster_public/src/prompts</title>
<path fill="#ffffff" stroke="black" stroke-width="2" d="M167.12,-54.56C167.12,-54.56 349.25,-54.56 349.25,-54.56 355.25,-54.56 361.25,-60.56 361.25,-66.56 361.25,-66.56 361.25,-95.56 361.25,-95.56 361.25,-101.56 355.25,-107.56 349.25,-107.56 349.25,-107.56 167.12,-107.56 167.12,-107.56 161.12,-107.56 155.12,-101.56 155.12,-95.56 155.12,-95.56 155.12,-66.56 155.12,-66.56 155.12,-60.56 161.12,-54.56 167.12,-54.56"/>
<text xml:space="preserve" text-anchor="middle" x="258.19" y="-95.01" font-family="Helvetica,sans-Serif" font-weight="bold" font-size="9.00">prompts</text>
</g>
<g id="clust9" class="cluster">
<title>cluster_public/src/storage</title>
<path fill="#ffffff" stroke="black" stroke-width="2" d="M381.25,-169.56C381.25,-169.56 462.75,-169.56 462.75,-169.56 468.75,-169.56 474.75,-175.56 474.75,-181.56 474.75,-181.56 474.75,-210.56 474.75,-210.56 474.75,-216.56 468.75,-222.56 462.75,-222.56 462.75,-222.56 381.25,-222.56 381.25,-222.56 375.25,-222.56 369.25,-216.56 369.25,-210.56 369.25,-210.56 369.25,-181.56 369.25,-181.56 369.25,-175.56 375.25,-169.56 381.25,-169.56"/>
<text xml:space="preserve" text-anchor="middle" x="422" y="-210.01" font-family="Helvetica,sans-Serif" font-weight="bold" font-size="9.00">storage</text>
</g>
<g id="clust10" class="cluster">
<title>cluster_public/src/ui</title>
<path fill="#ffffff" stroke="black" stroke-width="2" d="M171.62,-121.56C171.62,-121.56 336.88,-121.56 336.88,-121.56 342.88,-121.56 348.88,-127.56 348.88,-133.56 348.88,-133.56 348.88,-162.56 348.88,-162.56 348.88,-168.56 342.88,-174.56 336.88,-174.56 336.88,-174.56 171.62,-174.56 171.62,-174.56 165.62,-174.56 159.62,-168.56 159.62,-162.56 159.62,-162.56 159.62,-133.56 159.62,-133.56 159.62,-127.56 165.62,-121.56 171.62,-121.56"/>
<text xml:space="preserve" text-anchor="middle" x="254.25" y="-162.01" font-family="Helvetica,sans-Serif" font-weight="bold" font-size="9.00">ui</text>
</g>
<g id="clust11" class="cluster">
<title>cluster_public/src/utils</title>
<path fill="#ffffff" stroke="black" stroke-width="2" d="M387.62,-230.56C387.62,-230.56 456.38,-230.56 456.38,-230.56 462.38,-230.56 468.38,-236.56 468.38,-242.56 468.38,-242.56 468.38,-333.56 468.38,-333.56 468.38,-339.56 462.38,-345.56 456.38,-345.56 456.38,-345.56 387.62,-345.56 387.62,-345.56 381.62,-345.56 375.62,-339.56 375.62,-333.56 375.62,-333.56 375.62,-242.56 375.62,-242.56 375.62,-236.56 381.62,-230.56 387.62,-230.56"/>
<text xml:space="preserve" text-anchor="middle" x="422" y="-333.01" font-family="Helvetica,sans-Serif" font-weight="bold" font-size="9.00">utils</text>
</g>
<!-- public/src/api/client.js -->
<g id="node1" class="node">
<title>public/src/api/client.js</title>
<g id="a_node1"><a xlink:href="public/src/api/client.js" xlink:title="client.js">
<path fill="#ffffcc" stroke="black" d="M327.83,-384.81C327.83,-384.81 286.17,-384.81 286.17,-384.81 283.08,-384.81 280,-381.72 280,-378.64 280,-378.64 280,-372.47 280,-372.47 280,-369.39 283.08,-366.31 286.17,-366.31 286.17,-366.31 327.83,-366.31 327.83,-366.31 330.92,-366.31 334,-369.39 334,-372.47 334,-372.47 334,-378.64 334,-378.64 334,-381.72 330.92,-384.81 327.83,-384.81"/>
<text xml:space="preserve" text-anchor="start" x="291.62" y="-372.26" font-family="Helvetica,sans-Serif" font-size="9.00">client.js</text>
</a>
</g>
</g>
<!-- public/src/core/state.js -->
<g id="node2" class="node">
<title>public/src/core/state.js</title>
<g id="a_node2"><a xlink:href="public/src/core/state.js" xlink:title="state.js">
<path fill="#ffffcc" stroke="black" d="M327.83,-242.81C327.83,-242.81 286.17,-242.81 286.17,-242.81 283.08,-242.81 280,-239.72 280,-236.64 280,-236.64 280,-230.47 280,-230.47 280,-227.39 283.08,-224.31 286.17,-224.31 286.17,-224.31 327.83,-224.31 327.83,-224.31 330.92,-224.31 334,-227.39 334,-230.47 334,-230.47 334,-236.64 334,-236.64 334,-239.72 330.92,-242.81 327.83,-242.81"/>
<text xml:space="preserve" text-anchor="start" x="292.75" y="-230.26" font-family="Helvetica,sans-Serif" font-size="9.00">state.js</text>
</a>
</g>
</g>
<!-- public/src/api/client.js&#45;&gt;public/src/core/state.js -->
<g id="edge1" class="edge">
<title>public/src/api/client.js&#45;&gt;public/src/core/state.js</title>
<path fill="none" stroke="#000000" stroke-width="2" stroke-opacity="0.200000" d="M279.56,-368.82C269.21,-364.64 258.82,-358.01 254.25,-347.56 245.87,-328.42 247.41,-320.3 254.25,-300.56 261.27,-280.31 277.21,-261.53 289.75,-249.04"/>
<polygon fill="#000000" fill-opacity="0.200000" stroke="#000000" stroke-width="2" stroke-opacity="0.200000" points="290.87,-250.88 293.75,-245.21 287.96,-247.85 290.87,-250.88"/>
</g>
<!-- public/src/prompts/prompt&#45;manager.js -->
<g id="node12" class="node">
<title>public/src/prompts/prompt&#45;manager.js</title>
<g id="a_node12"><a xlink:href="public/src/prompts/prompt-manager.js" xlink:title="prompt&#45;manager.js">
<path fill="#ffffcc" stroke="black" d="M347.08,-80.81C347.08,-80.81 266.92,-80.81 266.92,-80.81 263.83,-80.81 260.75,-77.72 260.75,-74.64 260.75,-74.64 260.75,-68.47 260.75,-68.47 260.75,-65.39 263.83,-62.31 266.92,-62.31 266.92,-62.31 347.08,-62.31 347.08,-62.31 350.17,-62.31 353.25,-65.39 353.25,-68.47 353.25,-68.47 353.25,-74.64 353.25,-74.64 353.25,-77.72 350.17,-80.81 347.08,-80.81"/>
<text xml:space="preserve" text-anchor="start" x="268.75" y="-68.26" font-family="Helvetica,sans-Serif" font-size="9.00">prompt&#45;manager.js</text>
</a>
</g>
</g>
<!-- public/src/core/state.js&#45;&gt;public/src/prompts/prompt&#45;manager.js -->
<g id="edge16" class="edge">
<title>public/src/core/state.js&#45;&gt;public/src/prompts/prompt&#45;manager.js</title>
<g id="a_edge16"><a xlink:title="no&#45;circular">
<path fill="none" stroke="orange" stroke-width="2" d="M279.65,-230.09C269.17,-227.12 258.67,-221.65 254.25,-211.56 246.5,-193.85 246.87,-142.43 254.25,-124.56 259.26,-112.43 268.53,-101.62 277.92,-92.97"/>
<polygon fill="orange" stroke="orange" stroke-width="2" points="286.53,-88.64 289.84,-83.21 283.87,-85.39 286.53,-88.64"/>
<polyline fill="none" stroke="orange" stroke-width="2" points="284.43,-87.65 282.11,-89.55"/>
<ellipse fill="none" stroke="orange" stroke-width="2" cx="279.48" cy="-91.7" rx="2.4" ry="2.4"/>
</a>
</g>
<text xml:space="preserve" text-anchor="middle" x="227.36" y="-154.87" font-family="Helvetica,sans-Serif" font-size="9.00" fill="orange">no&#45;circular</text>
</g>
<!-- public/src/api/message&#45;processor.js -->
<g id="node3" class="node">
<title>public/src/api/message&#45;processor.js</title>
<g id="a_node3"><a xlink:href="public/src/api/message-processor.js" xlink:title="message&#45;processor.js">
<path fill="#ffffcc" stroke="black" d="M241.58,-384.81C241.58,-384.81 148.67,-384.81 148.67,-384.81 145.58,-384.81 142.5,-381.72 142.5,-378.64 142.5,-378.64 142.5,-372.47 142.5,-372.47 142.5,-369.39 145.58,-366.31 148.67,-366.31 148.67,-366.31 241.58,-366.31 241.58,-366.31 244.67,-366.31 247.75,-369.39 247.75,-372.47 247.75,-372.47 247.75,-378.64 247.75,-378.64 247.75,-381.72 244.67,-384.81 241.58,-384.81"/>
<text xml:space="preserve" text-anchor="start" x="150.5" y="-372.26" font-family="Helvetica,sans-Serif" font-size="9.00">message&#45;processor.js</text>
</a>
</g>
</g>
<!-- public/src/api/message&#45;processor.js&#45;&gt;public/src/api/client.js -->
<g id="edge7" class="edge">
<title>public/src/api/message&#45;processor.js&#45;&gt;public/src/api/client.js</title>
<path fill="none" stroke="#000000" stroke-width="2" stroke-opacity="0.200000" d="M248.17,-375.56C255.81,-375.56 263.53,-375.56 270.73,-375.56"/>
<polygon fill="#000000" fill-opacity="0.200000" stroke="#000000" stroke-width="2" stroke-opacity="0.200000" points="270.5,-377.66 276.5,-375.56 270.5,-373.46 270.5,-377.66"/>
</g>
<!-- public/src/api/message&#45;processor.js&#45;&gt;public/src/core/state.js -->
<g id="edge3" class="edge">
<title>public/src/api/message&#45;processor.js&#45;&gt;public/src/core/state.js</title>
<path fill="none" stroke="#000000" stroke-width="2" stroke-opacity="0.200000" d="M231.39,-365.91C237.56,-362.83 243.4,-358.81 247.75,-353.56 264.89,-332.89 249.62,-318.99 260.75,-294.56 268.36,-277.86 281.06,-261.3 291.07,-249.65"/>
<polygon fill="#000000" fill-opacity="0.200000" stroke="#000000" stroke-width="2" stroke-opacity="0.200000" points="292.48,-251.23 294.89,-245.35 289.34,-248.45 292.48,-251.23"/>
</g>
<!-- public/src/core/config.js -->
<g id="node4" class="node">
<title>public/src/core/config.js</title>
<g id="a_node4"><a xlink:href="public/src/core/config.js" xlink:title="config.js">
<path fill="#ffffcc" stroke="black" d="M327.83,-211.81C327.83,-211.81 286.17,-211.81 286.17,-211.81 283.08,-211.81 280,-208.72 280,-205.64 280,-205.64 280,-199.47 280,-199.47 280,-196.39 283.08,-193.31 286.17,-193.31 286.17,-193.31 327.83,-193.31 327.83,-193.31 330.92,-193.31 334,-196.39 334,-199.47 334,-199.47 334,-205.64 334,-205.64 334,-208.72 330.92,-211.81 327.83,-211.81"/>
<text xml:space="preserve" text-anchor="start" x="290.12" y="-199.26" font-family="Helvetica,sans-Serif" font-size="9.00">config.js</text>
</a>
</g>
</g>
<!-- public/src/api/message&#45;processor.js&#45;&gt;public/src/core/config.js -->
<g id="edge2" class="edge">
<title>public/src/api/message&#45;processor.js&#45;&gt;public/src/core/config.js</title>
<path fill="none" stroke="#000000" stroke-width="2" stroke-opacity="0.200000" d="M232.69,-365.9C238.52,-362.84 243.89,-358.82 247.75,-353.56 283.36,-304.92 223.63,-266.05 260.75,-218.56 263.63,-214.88 267.41,-212.04 271.57,-209.86"/>
<polygon fill="#000000" fill-opacity="0.200000" stroke="#000000" stroke-width="2" stroke-opacity="0.200000" points="272.36,-211.8 277.1,-207.57 270.75,-207.92 272.36,-211.8"/>
</g>
<!-- public/src/file&#45;system/file&#45;editor.js -->
<g id="node5" class="node">
<title>public/src/file&#45;system/file&#45;editor.js</title>
<g id="a_node5"><a xlink:href="public/src/file-system/file-editor.js" xlink:title="file&#45;editor.js">
<path fill="#ffffcc" stroke="black" d="M220.21,-323.81C220.21,-323.81 170.04,-323.81 170.04,-323.81 166.96,-323.81 163.88,-320.72 163.88,-317.64 163.88,-317.64 163.88,-311.47 163.88,-311.47 163.88,-308.39 166.96,-305.31 170.04,-305.31 170.04,-305.31 220.21,-305.31 220.21,-305.31 223.29,-305.31 226.38,-308.39 226.38,-311.47 226.38,-311.47 226.38,-317.64 226.38,-317.64 226.38,-320.72 223.29,-323.81 220.21,-323.81"/>
<text xml:space="preserve" text-anchor="start" x="171.88" y="-311.26" font-family="Helvetica,sans-Serif" font-size="9.00">file&#45;editor.js</text>
</a>
</g>
</g>
<!-- public/src/api/message&#45;processor.js&#45;&gt;public/src/file&#45;system/file&#45;editor.js -->
<g id="edge4" class="edge">
<title>public/src/api/message&#45;processor.js&#45;&gt;public/src/file&#45;system/file&#45;editor.js</title>
<path fill="none" stroke="#000000" stroke-width="2" stroke-opacity="0.200000" d="M195.12,-365.91C195.12,-354.91 195.12,-343.91 195.12,-332.91"/>
<polygon fill="#000000" fill-opacity="0.200000" stroke="#000000" stroke-width="2" stroke-opacity="0.200000" points="197.23,-333.12 195.13,-327.12 193.03,-333.12 197.23,-333.12"/>
</g>
<!-- public/src/file&#45;system/file&#45;manager.js -->
<g id="node6" class="node">
<title>public/src/file&#45;system/file&#45;manager.js</title>
<g id="a_node6"><a xlink:href="public/src/file-system/file-manager.js" xlink:title="file&#45;manager.js">
<path fill="#ffffcc" stroke="black" d="M338.83,-323.81C338.83,-323.81 275.17,-323.81 275.17,-323.81 272.08,-323.81 269,-320.72 269,-317.64 269,-317.64 269,-311.47 269,-311.47 269,-308.39 272.08,-305.31 275.17,-305.31 275.17,-305.31 338.83,-305.31 338.83,-305.31 341.92,-305.31 345,-308.39 345,-311.47 345,-311.47 345,-317.64 345,-317.64 345,-320.72 341.92,-323.81 338.83,-323.81"/>
<text xml:space="preserve" text-anchor="start" x="277" y="-311.26" font-family="Helvetica,sans-Serif" font-size="9.00">file&#45;manager.js</text>
</a>
</g>
</g>
<!-- public/src/api/message&#45;processor.js&#45;&gt;public/src/file&#45;system/file&#45;manager.js -->
<g id="edge5" class="edge">
<title>public/src/api/message&#45;processor.js&#45;&gt;public/src/file&#45;system/file&#45;manager.js</title>
<path fill="none" stroke="#000000" stroke-width="2" stroke-opacity="0.200000" d="M221.51,-365.85C230.02,-362.31 239.44,-358.06 247.75,-353.56 260.97,-346.4 274.99,-337.07 285.96,-329.33"/>
<polygon fill="#000000" fill-opacity="0.200000" stroke="#000000" stroke-width="2" stroke-opacity="0.200000" points="286.91,-331.24 290.56,-326.04 284.46,-327.82 286.91,-331.24"/>
</g>
<!-- public/src/utils/markdown.js -->
<g id="node7" class="node">
<title>public/src/utils/markdown.js</title>
<g id="a_node7"><a xlink:href="public/src/utils/markdown.js" xlink:title="markdown.js">
<path fill="#ffffcc" stroke="black" d="M449.71,-318.81C449.71,-318.81 394.29,-318.81 394.29,-318.81 391.21,-318.81 388.12,-315.72 388.12,-312.64 388.12,-312.64 388.12,-306.47 388.12,-306.47 388.12,-303.39 391.21,-300.31 394.29,-300.31 394.29,-300.31 449.71,-300.31 449.71,-300.31 452.79,-300.31 455.88,-303.39 455.88,-306.47 455.88,-306.47 455.88,-312.64 455.88,-312.64 455.88,-315.72 452.79,-318.81 449.71,-318.81"/>
<text xml:space="preserve" text-anchor="start" x="396.12" y="-306.26" font-family="Helvetica,sans-Serif" font-size="9.00">markdown.js</text>
</a>
</g>
</g>
<!-- public/src/api/message&#45;processor.js&#45;&gt;public/src/utils/markdown.js -->
<g id="edge6" class="edge">
<title>public/src/api/message&#45;processor.js&#45;&gt;public/src/utils/markdown.js</title>
<path fill="none" stroke="#000000" stroke-width="2" stroke-opacity="0.200000" d="M219.75,-385.22C253.2,-397.29 315.38,-413.72 361.25,-390.56 387.36,-377.37 404.87,-346.81 413.86,-327.22"/>
<polygon fill="#000000" fill-opacity="0.200000" stroke="#000000" stroke-width="2" stroke-opacity="0.200000" points="415.72,-328.21 416.19,-321.87 411.87,-326.54 415.72,-328.21"/>
</g>
<!-- public/src/storage/storage&#45;adapter.js -->
<g id="node11" class="node">
<title>public/src/storage/storage&#45;adapter.js</title>
<g id="a_node11"><a xlink:href="public/src/storage/storage-adapter.js" xlink:title="storage&#45;adapter.js">
<path fill="#ffffcc" stroke="black" d="M460.58,-195.81C460.58,-195.81 383.42,-195.81 383.42,-195.81 380.33,-195.81 377.25,-192.72 377.25,-189.64 377.25,-189.64 377.25,-183.47 377.25,-183.47 377.25,-180.39 380.33,-177.31 383.42,-177.31 383.42,-177.31 460.58,-177.31 460.58,-177.31 463.67,-177.31 466.75,-180.39 466.75,-183.47 466.75,-183.47 466.75,-189.64 466.75,-189.64 466.75,-192.72 463.67,-195.81 460.58,-195.81"/>
<text xml:space="preserve" text-anchor="start" x="385.25" y="-183.26" font-family="Helvetica,sans-Serif" font-size="9.00">storage&#45;adapter.js</text>
</a>
</g>
</g>
<!-- public/src/core/config.js&#45;&gt;public/src/storage/storage&#45;adapter.js -->
<g id="edge15" class="edge">
<title>public/src/core/config.js&#45;&gt;public/src/storage/storage&#45;adapter.js</title>
<path fill="none" stroke="#000000" stroke-width="2" stroke-opacity="0.200000" d="M334.49,-198.81C344.58,-197.38 356.46,-195.7 368.13,-194.04"/>
<polygon fill="#000000" fill-opacity="0.200000" stroke="#000000" stroke-width="2" stroke-opacity="0.200000" points="368.34,-196.13 373.99,-193.21 367.75,-191.98 368.34,-196.13"/>
</g>
<!-- public/src/file&#45;system/file&#45;editor.js&#45;&gt;public/src/core/state.js -->
<g id="edge27" class="edge">
<title>public/src/file&#45;system/file&#45;editor.js&#45;&gt;public/src/core/state.js</title>
<path fill="none" stroke="#000000" stroke-width="2" stroke-opacity="0.200000" d="M209.16,-304.95C228.16,-290.94 263.62,-264.8 285.95,-248.34"/>
<polygon fill="#000000" fill-opacity="0.200000" stroke="#000000" stroke-width="2" stroke-opacity="0.200000" points="286.96,-250.2 290.54,-244.95 284.47,-246.82 286.96,-250.2"/>
</g>
<!-- public/src/file&#45;system/file&#45;editor.js&#45;&gt;public/src/core/config.js -->
<g id="edge26" class="edge">
<title>public/src/file&#45;system/file&#45;editor.js&#45;&gt;public/src/core/config.js</title>
<path fill="none" stroke="#000000" stroke-width="2" stroke-opacity="0.200000" d="M213.01,-304.93C224.5,-297.52 239.13,-286.25 247.75,-272.56 260.91,-251.67 244.22,-236.89 260.75,-218.56 263.81,-215.16 267.64,-212.49 271.76,-210.38"/>
<polygon fill="#000000" fill-opacity="0.200000" stroke="#000000" stroke-width="2" stroke-opacity="0.200000" points="272.4,-212.39 277.13,-208.15 270.79,-208.51 272.4,-212.39"/>
</g>
<!-- public/src/file&#45;system/file&#45;editor.js&#45;&gt;public/src/file&#45;system/file&#45;manager.js -->
<g id="edge31" class="edge">
<title>public/src/file&#45;system/file&#45;editor.js&#45;&gt;public/src/file&#45;system/file&#45;manager.js</title>
<g id="a_edge31"><a xlink:title="no&#45;circular">
<path fill="none" stroke="orange" stroke-width="2" d="M226.73,-310.48C233.92,-310.21 241.8,-310.07 249.72,-310.06"/>
<polygon fill="orange" stroke="orange" stroke-width="2" points="259.47,-312.27 265.49,-310.23 259.52,-308.07 259.47,-312.27"/>
<polyline fill="none" stroke="orange" stroke-width="2" points="258.49,-310.16 255.49,-310.12"/>
<ellipse fill="none" stroke="orange" stroke-width="2" cx="252.09" cy="-310.08" rx="2.4" ry="2.4"/>
</a>
</g>
<text xml:space="preserve" text-anchor="middle" x="269.24" y="-301.52" font-family="Helvetica,sans-Serif" font-size="9.00" fill="orange">no&#45;circular</text>
</g>
<!-- public/src/file&#45;system/file&#45;editor.js&#45;&gt;public/src/utils/markdown.js -->
<g id="edge30" class="edge">
<title>public/src/file&#45;system/file&#45;editor.js&#45;&gt;public/src/utils/markdown.js</title>
<path fill="none" stroke="#000000" stroke-width="2" stroke-opacity="0.200000" d="M226.77,-305.94C237.44,-303.34 249.54,-300.84 260.75,-299.56 305.13,-294.48 316.74,-295.86 361.25,-299.56 367.02,-300.04 373.08,-300.77 379.03,-301.63"/>
<polygon fill="#000000" fill-opacity="0.200000" stroke="#000000" stroke-width="2" stroke-opacity="0.200000" points="378.38,-303.66 384.63,-302.5 379.03,-299.51 378.38,-303.66"/>
</g>
<!-- public/src/ui/navigation.js -->
<g id="node10" class="node">
<title>public/src/ui/navigation.js</title>
<g id="a_node10"><a xlink:href="public/src/ui/navigation.js" xlink:title="navigation.js">
<path fill="#ffffcc" stroke="black" d="M334.71,-147.81C334.71,-147.81 279.29,-147.81 279.29,-147.81 276.21,-147.81 273.12,-144.72 273.12,-141.64 273.12,-141.64 273.12,-135.47 273.12,-135.47 273.12,-132.39 276.21,-129.31 279.29,-129.31 279.29,-129.31 334.71,-129.31 334.71,-129.31 337.79,-129.31 340.88,-132.39 340.88,-135.47 340.88,-135.47 340.88,-141.64 340.88,-141.64 340.88,-144.72 337.79,-147.81 334.71,-147.81"/>
<text xml:space="preserve" text-anchor="start" x="281.12" y="-135.26" font-family="Helvetica,sans-Serif" font-size="9.00">navigation.js</text>
</a>
</g>
</g>
<!-- public/src/file&#45;system/file&#45;editor.js&#45;&gt;public/src/ui/navigation.js -->
<g id="edge28" class="edge">
<title>public/src/file&#45;system/file&#45;editor.js&#45;&gt;public/src/ui/navigation.js</title>
<path fill="none" stroke="#000000" stroke-width="2" stroke-opacity="0.200000" d="M213.91,-304.86C225.5,-297.55 239.89,-286.43 247.75,-272.56 267.68,-237.4 242.4,-218.56 260.75,-182.56 266.48,-171.31 276.22,-161.28 285.2,-153.64"/>
<polygon fill="#000000" fill-opacity="0.200000" stroke="#000000" stroke-width="2" stroke-opacity="0.200000" points="286.42,-155.35 289.78,-149.95 283.79,-152.08 286.42,-155.35"/>
</g>
<!-- public/src/utils/dom&#45;helpers.js -->
<g id="node16" class="node">
<title>public/src/utils/dom&#45;helpers.js</title>
<g id="a_node16"><a xlink:href="public/src/utils/dom-helpers.js" xlink:title="dom&#45;helpers.js">
<path fill="#ffffcc" stroke="black" d="M454.21,-287.81C454.21,-287.81 389.79,-287.81 389.79,-287.81 386.71,-287.81 383.62,-284.72 383.62,-281.64 383.62,-281.64 383.62,-275.47 383.62,-275.47 383.62,-272.39 386.71,-269.31 389.79,-269.31 389.79,-269.31 454.21,-269.31 454.21,-269.31 457.29,-269.31 460.38,-272.39 460.38,-275.47 460.38,-275.47 460.38,-281.64 460.38,-281.64 460.38,-284.72 457.29,-287.81 454.21,-287.81"/>
<text xml:space="preserve" text-anchor="start" x="391.62" y="-275.26" font-family="Helvetica,sans-Serif" font-size="9.00">dom&#45;helpers.js</text>
</a>
</g>
</g>
<!-- public/src/file&#45;system/file&#45;editor.js&#45;&gt;public/src/utils/dom&#45;helpers.js -->
<g id="edge29" class="edge">
<title>public/src/file&#45;system/file&#45;editor.js&#45;&gt;public/src/utils/dom&#45;helpers.js</title>
<path fill="none" stroke="#000000" stroke-width="2" stroke-opacity="0.200000" d="M221.56,-304.85C233.32,-300.74 247.58,-296.28 260.75,-293.56 298.64,-285.73 342.43,-281.98 374.65,-280.19"/>
<polygon fill="#000000" fill-opacity="0.200000" stroke="#000000" stroke-width="2" stroke-opacity="0.200000" points="374.51,-282.3 380.39,-279.89 374.29,-278.1 374.51,-282.3"/>
</g>
<!-- public/src/file&#45;system/file&#45;manager.js&#45;&gt;public/src/core/state.js -->
<g id="edge33" class="edge">
<title>public/src/file&#45;system/file&#45;manager.js&#45;&gt;public/src/core/state.js</title>
<path fill="none" stroke="#000000" stroke-width="2" stroke-opacity="0.200000" d="M307,-305.06C307,-287.3 307,-269.53 307,-251.77"/>
<polygon fill="#000000" fill-opacity="0.200000" stroke="#000000" stroke-width="2" stroke-opacity="0.200000" points="309.1,-252.08 307,-246.08 304.9,-252.08 309.1,-252.08"/>
</g>
<!-- public/src/file&#45;system/file&#45;manager.js&#45;&gt;public/src/core/config.js -->
<g id="edge32" class="edge">
<title>public/src/file&#45;system/file&#45;manager.js&#45;&gt;public/src/core/config.js</title>
<path fill="none" stroke="#000000" stroke-width="2" stroke-opacity="0.200000" d="M268.66,-305.32C262.45,-301.86 257.12,-297.1 254.25,-290.56 248.37,-277.12 248.37,-237.99 254.25,-224.56 257.49,-217.15 264.02,-212.23 271.41,-208.96"/>
<polygon fill="#000000" fill-opacity="0.200000" stroke="#000000" stroke-width="2" stroke-opacity="0.200000" points="271.85,-211.03 276.8,-207.04 270.44,-207.07 271.85,-211.03"/>
</g>
<!-- public/src/file&#45;system/file&#45;manager.js&#45;&gt;public/src/file&#45;system/file&#45;editor.js -->
<g id="edge36" class="edge">
<title>public/src/file&#45;system/file&#45;manager.js&#45;&gt;public/src/file&#45;system/file&#45;editor.js</title>
<g id="a_edge36"><a xlink:title="no&#45;circular">
<path fill="none" stroke="orange" stroke-width="2" d="M268.52,-318.85C261.07,-319.03 253.15,-319.1 245.37,-319.04"/>
<polygon fill="orange" stroke="orange" stroke-width="2" points="235.8,-316.73 229.76,-318.7 235.71,-320.93 235.8,-316.73"/>
<polyline fill="none" stroke="orange" stroke-width="2" points="236.76,-318.85 239.76,-318.92"/>
<ellipse fill="none" stroke="orange" stroke-width="2" cx="243.15" cy="-318.99" rx="2.4" ry="2.4"/>
</a>
</g>
<text xml:space="preserve" text-anchor="middle" x="269.31" y="-321" font-family="Helvetica,sans-Serif" font-size="9.00" fill="orange">no&#45;circular</text>
</g>
<!-- public/src/file&#45;system/file&#45;manager.js&#45;&gt;public/src/ui/navigation.js -->
<g id="edge34" class="edge">
<title>public/src/file&#45;system/file&#45;manager.js&#45;&gt;public/src/ui/navigation.js</title>
<path fill="none" stroke="#000000" stroke-width="2" stroke-opacity="0.200000" d="M268.66,-305.32C262.45,-301.86 257.12,-297.1 254.25,-290.56 249.7,-280.18 249.77,-198.97 254.25,-188.56 260.38,-174.29 272.81,-162.19 284.06,-153.47"/>
<polygon fill="#000000" fill-opacity="0.200000" stroke="#000000" stroke-width="2" stroke-opacity="0.200000" points="285.16,-155.26 288.76,-150.02 282.68,-151.87 285.16,-155.26"/>
</g>
<!-- public/src/utils/helpers.js -->
<g id="node15" class="node">
<title>public/src/utils/helpers.js</title>
<g id="a_node15"><a xlink:href="public/src/utils/helpers.js" xlink:title="helpers.js">
<path fill="#ffffcc" stroke="black" d="M443.71,-256.81C443.71,-256.81 400.29,-256.81 400.29,-256.81 397.21,-256.81 394.12,-253.72 394.12,-250.64 394.12,-250.64 394.12,-244.47 394.12,-244.47 394.12,-241.39 397.21,-238.31 400.29,-238.31 400.29,-238.31 443.71,-238.31 443.71,-238.31 446.79,-238.31 449.88,-241.39 449.88,-244.47 449.88,-244.47 449.88,-250.64 449.88,-250.64 449.88,-253.72 446.79,-256.81 443.71,-256.81"/>
<text xml:space="preserve" text-anchor="start" x="402.12" y="-244.26" font-family="Helvetica,sans-Serif" font-size="9.00">helpers.js</text>
</a>
</g>
</g>
<!-- public/src/file&#45;system/file&#45;manager.js&#45;&gt;public/src/utils/helpers.js -->
<g id="edge35" class="edge">
<title>public/src/file&#45;system/file&#45;manager.js&#45;&gt;public/src/utils/helpers.js</title>
<path fill="none" stroke="#000000" stroke-width="2" stroke-opacity="0.200000" d="M321.67,-304.82C332.75,-296.68 348.57,-284.51 361.25,-272.56 365.14,-268.89 364.75,-266.45 369.25,-263.56 374.19,-260.38 379.8,-257.8 385.46,-255.71"/>
<polygon fill="#000000" fill-opacity="0.200000" stroke="#000000" stroke-width="2" stroke-opacity="0.200000" points="385.8,-257.81 390.84,-253.94 384.49,-253.82 385.8,-257.81"/>
</g>
<!-- public/src/core/app.js -->
<g id="node8" class="node">
<title>public/src/core/app.js</title>
<g id="a_node8"><a xlink:href="public/src/core/app.js" xlink:title="app.js">
<path fill="#ffffcc" stroke="black" d="M215.96,-242.81C215.96,-242.81 174.29,-242.81 174.29,-242.81 171.21,-242.81 168.12,-239.72 168.12,-236.64 168.12,-236.64 168.12,-230.47 168.12,-230.47 168.12,-227.39 171.21,-224.31 174.29,-224.31 174.29,-224.31 215.96,-224.31 215.96,-224.31 219.04,-224.31 222.12,-227.39 222.12,-230.47 222.12,-230.47 222.12,-236.64 222.12,-236.64 222.12,-239.72 219.04,-242.81 215.96,-242.81"/>
<text xml:space="preserve" text-anchor="start" x="182.75" y="-230.26" font-family="Helvetica,sans-Serif" font-size="9.00">app.js</text>
</a>
</g>
</g>
<!-- public/src/core/app.js&#45;&gt;public/src/api/client.js -->
<g id="edge8" class="edge">
<title>public/src/core/app.js&#45;&gt;public/src/api/client.js</title>
<path fill="none" stroke="#000000" stroke-width="2" stroke-opacity="0.200000" d="M206.99,-243.22C218.86,-254.4 237.53,-273.92 247.75,-294.56 259.66,-318.62 244.13,-332.47 260.75,-353.56 263.79,-357.42 267.68,-360.64 271.9,-363.33"/>
<polygon fill="#000000" fill-opacity="0.200000" stroke="#000000" stroke-width="2" stroke-opacity="0.200000" points="270.8,-365.12 277.08,-366.14 272.81,-361.43 270.8,-365.12"/>
</g>
<!-- public/src/core/app.js&#45;&gt;public/src/core/state.js -->
<g id="edge14" class="edge">
<title>public/src/core/app.js&#45;&gt;public/src/core/state.js</title>
<path fill="none" stroke="#000000" stroke-width="2" stroke-opacity="0.200000" d="M222.44,-233.56C236.88,-233.56 254.97,-233.56 270.63,-233.56"/>
<polygon fill="#000000" fill-opacity="0.200000" stroke="#000000" stroke-width="2" stroke-opacity="0.200000" points="270.49,-235.66 276.49,-233.56 270.49,-231.46 270.49,-235.66"/>
</g>
<!-- public/src/core/app.js&#45;&gt;public/src/api/message&#45;processor.js -->
<g id="edge9" class="edge">
<title>public/src/core/app.js&#45;&gt;public/src/api/message&#45;processor.js</title>
<path fill="none" stroke="#000000" stroke-width="2" stroke-opacity="0.200000" d="M179.36,-243.26C162.84,-254.58 138.23,-275.04 130.5,-300.56 127.47,-310.55 127.47,-337.56 130.5,-347.56 132.15,-353.01 135.34,-357.41 139.46,-360.95"/>
<polygon fill="#000000" fill-opacity="0.200000" stroke="#000000" stroke-width="2" stroke-opacity="0.200000" points="137.96,-362.47 144.1,-364.13 140.34,-359.01 137.96,-362.47"/>
</g>
<!-- public/src/core/app.js&#45;&gt;public/src/core/config.js -->
<g id="edge13" class="edge">
<title>public/src/core/app.js&#45;&gt;public/src/core/config.js</title>
<path fill="none" stroke="#000000" stroke-width="2" stroke-opacity="0.200000" d="M222.44,-226.13C237.01,-222.02 255.31,-216.86 271.06,-212.41"/>
<polygon fill="#000000" fill-opacity="0.200000" stroke="#000000" stroke-width="2" stroke-opacity="0.200000" points="271.4,-214.5 276.6,-210.85 270.26,-210.46 271.4,-214.5"/>
</g>
<!-- public/src/core/app.js&#45;&gt;public/src/file&#45;system/file&#45;manager.js -->
<g id="edge11" class="edge">
<title>public/src/core/app.js&#45;&gt;public/src/file&#45;system/file&#45;manager.js</title>
<path fill="none" stroke="#000000" stroke-width="2" stroke-opacity="0.200000" d="M209.16,-243.17C228.16,-257.17 263.62,-283.31 285.95,-299.78"/>
<polygon fill="#000000" fill-opacity="0.200000" stroke="#000000" stroke-width="2" stroke-opacity="0.200000" points="284.47,-301.29 290.54,-303.16 286.96,-297.91 284.47,-301.29"/>
</g>
<!-- public/src/events/event&#45;handlers.js -->
<g id="node9" class="node">
<title>public/src/events/event&#45;handlers.js</title>
<g id="a_node9"><a xlink:href="public/src/events/event-handlers.js" xlink:title="event&#45;handlers.js">
<path fill="#ffffcc" stroke="black" d="M112.33,-199.81C112.33,-199.81 38.17,-199.81 38.17,-199.81 35.08,-199.81 32,-196.72 32,-193.64 32,-193.64 32,-187.47 32,-187.47 32,-184.39 35.08,-181.31 38.17,-181.31 38.17,-181.31 112.33,-181.31 112.33,-181.31 115.42,-181.31 118.5,-184.39 118.5,-187.47 118.5,-187.47 118.5,-193.64 118.5,-193.64 118.5,-196.72 115.42,-199.81 112.33,-199.81"/>
<text xml:space="preserve" text-anchor="start" x="40" y="-187.26" font-family="Helvetica,sans-Serif" font-size="9.00">event&#45;handlers.js</text>
</a>
</g>
</g>
<!-- public/src/core/app.js&#45;&gt;public/src/events/event&#45;handlers.js -->
<g id="edge10" class="edge">
<title>public/src/core/app.js&#45;&gt;public/src/events/event&#45;handlers.js</title>
<path fill="none" stroke="#000000" stroke-width="2" stroke-opacity="0.200000" d="M167.76,-223.94C150.94,-217.81 128.97,-209.79 110.77,-203.15"/>
<polygon fill="#000000" fill-opacity="0.200000" stroke="#000000" stroke-width="2" stroke-opacity="0.200000" points="111.9,-201.33 105.55,-201.25 110.46,-205.27 111.9,-201.33"/>
</g>
<!-- public/src/core/app.js&#45;&gt;public/src/ui/navigation.js -->
<g id="edge12" class="edge">
<title>public/src/core/app.js&#45;&gt;public/src/ui/navigation.js</title>
<path fill="none" stroke="#000000" stroke-width="2" stroke-opacity="0.200000" d="M207.06,-224.1C226.05,-207.68 265.28,-173.77 288.22,-153.93"/>
<polygon fill="#000000" fill-opacity="0.200000" stroke="#000000" stroke-width="2" stroke-opacity="0.200000" points="289.33,-155.75 292.49,-150.24 286.58,-152.57 289.33,-155.75"/>
</g>
<!-- public/src/events/event&#45;handlers.js&#45;&gt;public/src/core/state.js -->
<g id="edge19" class="edge">
<title>public/src/events/event&#45;handlers.js&#45;&gt;public/src/core/state.js</title>
<path fill="none" stroke="#000000" stroke-width="2" stroke-opacity="0.200000" d="M118.73,-196.4C153.56,-201.46 204.05,-209.38 247.75,-218.56 255.32,-220.15 263.38,-222.07 271.01,-224"/>
<polygon fill="#000000" fill-opacity="0.200000" stroke="#000000" stroke-width="2" stroke-opacity="0.200000" points="270.47,-226.03 276.8,-225.5 271.52,-221.96 270.47,-226.03"/>
</g>
<!-- public/src/events/event&#45;handlers.js&#45;&gt;public/src/api/message&#45;processor.js -->
<g id="edge17" class="edge">
<title>public/src/events/event&#45;handlers.js&#45;&gt;public/src/api/message&#45;processor.js</title>
<path fill="none" stroke="#000000" stroke-width="2" stroke-opacity="0.200000" d="M82,-200.1C92.62,-218.2 115.28,-259.1 126.5,-296.56 133.84,-321.06 118.45,-333.64 134.5,-353.56 136.88,-356.51 139.69,-359.06 142.77,-361.27"/>
<polygon fill="#000000" fill-opacity="0.200000" stroke="#000000" stroke-width="2" stroke-opacity="0.200000" points="141.57,-363 147.8,-364.28 143.73,-359.39 141.57,-363"/>
</g>
<!-- public/src/events/event&#45;handlers.js&#45;&gt;public/src/core/config.js -->
<g id="edge18" class="edge">
<title>public/src/events/event&#45;handlers.js&#45;&gt;public/src/core/config.js</title>
<path fill="none" stroke="#000000" stroke-width="2" stroke-opacity="0.200000" d="M118.97,-189.7C153.72,-189.39 203.99,-189.81 247.75,-193.56 255.3,-194.2 263.35,-195.23 270.99,-196.36"/>
<polygon fill="#000000" fill-opacity="0.200000" stroke="#000000" stroke-width="2" stroke-opacity="0.200000" points="270.46,-198.4 276.71,-197.25 271.11,-194.25 270.46,-198.4"/>
</g>
<!-- public/src/events/event&#45;handlers.js&#45;&gt;public/src/file&#45;system/file&#45;editor.js -->
<g id="edge20" class="edge">
<title>public/src/events/event&#45;handlers.js&#45;&gt;public/src/file&#45;system/file&#45;editor.js</title>
<path fill="none" stroke="#000000" stroke-width="2" stroke-opacity="0.200000" d="M81.62,-200.2C90.95,-216.38 111.36,-249.51 134.5,-272.56 145,-283.01 158.35,-292.68 169.76,-300.1"/>
<polygon fill="#000000" fill-opacity="0.200000" stroke="#000000" stroke-width="2" stroke-opacity="0.200000" points="168.54,-301.81 174.73,-303.25 170.78,-298.26 168.54,-301.81"/>
</g>
<!-- public/src/events/event&#45;handlers.js&#45;&gt;public/src/file&#45;system/file&#45;manager.js -->
<g id="edge21" class="edge">
<title>public/src/events/event&#45;handlers.js&#45;&gt;public/src/file&#45;system/file&#45;manager.js</title>
<path fill="none" stroke="#000000" stroke-width="2" stroke-opacity="0.200000" d="M81.65,-200.21C91.71,-218.5 113.45,-259.7 126.5,-296.56 131.54,-310.78 122.64,-320.23 134.5,-329.56 175.78,-362.02 241.19,-342.86 278.15,-327.64"/>
<polygon fill="#000000" fill-opacity="0.200000" stroke="#000000" stroke-width="2" stroke-opacity="0.200000" points="278.55,-329.75 283.25,-325.47 276.9,-325.89 278.55,-329.75"/>
</g>
<!-- public/src/events/event&#45;handlers.js&#45;&gt;public/src/ui/navigation.js -->
<g id="edge24" class="edge">
<title>public/src/events/event&#45;handlers.js&#45;&gt;public/src/ui/navigation.js</title>
<path fill="none" stroke="#000000" stroke-width="2" stroke-opacity="0.200000" d="M81.08,-180.94C89.48,-165.43 108.41,-135.45 134.5,-123.56 179.07,-103.25 236.85,-115.09 272.66,-126.24"/>
<polygon fill="#000000" fill-opacity="0.200000" stroke="#000000" stroke-width="2" stroke-opacity="0.200000" points="271.6,-128.1 277.96,-127.95 272.9,-124.1 271.6,-128.1"/>
</g>
<!-- public/src/prompts/prompt&#45;ui.js -->
<g id="node13" class="node">
<title>public/src/prompts/prompt&#45;ui.js</title>
<g id="a_node13"><a xlink:href="public/src/prompts/prompt-ui.js" xlink:title="prompt&#45;ui.js">
<path fill="#ffffcc" stroke="black" d="M220.96,-80.81C220.96,-80.81 169.29,-80.81 169.29,-80.81 166.21,-80.81 163.12,-77.72 163.12,-74.64 163.12,-74.64 163.12,-68.47 163.12,-68.47 163.12,-65.39 166.21,-62.31 169.29,-62.31 169.29,-62.31 220.96,-62.31 220.96,-62.31 224.04,-62.31 227.12,-65.39 227.12,-68.47 227.12,-68.47 227.12,-74.64 227.12,-74.64 227.12,-77.72 224.04,-80.81 220.96,-80.81"/>
<text xml:space="preserve" text-anchor="start" x="171.12" y="-68.26" font-family="Helvetica,sans-Serif" font-size="9.00">prompt&#45;ui.js</text>
</a>
</g>
</g>
<!-- public/src/events/event&#45;handlers.js&#45;&gt;public/src/prompts/prompt&#45;ui.js -->
<g id="edge22" class="edge">
<title>public/src/events/event&#45;handlers.js&#45;&gt;public/src/prompts/prompt&#45;ui.js</title>
<path fill="none" stroke="#000000" stroke-width="2" stroke-opacity="0.200000" d="M81.85,-181.14C91.36,-165.65 111.84,-134.35 134.5,-112.56 145.02,-102.44 158.27,-93.06 169.61,-85.83"/>
<polygon fill="#000000" fill-opacity="0.200000" stroke="#000000" stroke-width="2" stroke-opacity="0.200000" points="170.53,-87.73 174.53,-82.79 168.32,-84.16 170.53,-87.73"/>
</g>
<!-- public/src/ui/modals.js -->
<g id="node14" class="node">
<title>public/src/ui/modals.js</title>
<g id="a_node14"><a xlink:href="public/src/ui/modals.js" xlink:title="modals.js">
<path fill="#ffffcc" stroke="black" d="M216.46,-147.81C216.46,-147.81 173.79,-147.81 173.79,-147.81 170.71,-147.81 167.62,-144.72 167.62,-141.64 167.62,-141.64 167.62,-135.47 167.62,-135.47 167.62,-132.39 170.71,-129.31 173.79,-129.31 173.79,-129.31 216.46,-129.31 216.46,-129.31 219.54,-129.31 222.62,-132.39 222.62,-135.47 222.62,-135.47 222.62,-141.64 222.62,-141.64 222.62,-144.72 219.54,-147.81 216.46,-147.81"/>
<text xml:space="preserve" text-anchor="start" x="175.62" y="-135.26" font-family="Helvetica,sans-Serif" font-size="9.00">modals.js</text>
</a>
</g>
</g>
<!-- public/src/events/event&#45;handlers.js&#45;&gt;public/src/ui/modals.js -->
<g id="edge23" class="edge">
<title>public/src/events/event&#45;handlers.js&#45;&gt;public/src/ui/modals.js</title>
<path fill="none" stroke="#000000" stroke-width="2" stroke-opacity="0.200000" d="M98.15,-180.9C116.75,-172.69 143.65,-160.83 164.23,-151.74"/>
<polygon fill="#000000" fill-opacity="0.200000" stroke="#000000" stroke-width="2" stroke-opacity="0.200000" points="164.94,-153.73 169.58,-149.39 163.24,-149.89 164.94,-153.73"/>
</g>
<!-- public/src/events/event&#45;handlers.js&#45;&gt;public/src/utils/helpers.js -->
<g id="edge25" class="edge">
<title>public/src/events/event&#45;handlers.js&#45;&gt;public/src/utils/helpers.js</title>
<path fill="none" stroke="#000000" stroke-width="2" stroke-opacity="0.200000" d="M76.92,-181.02C79.33,-155.02 89.91,-82.77 134.5,-51.56 217.09,6.25 288.4,24.13 361.25,-45.56 375.72,-59.4 357.84,-209.11 369.25,-225.56 373.28,-231.37 379.17,-235.65 385.55,-238.8"/>
<polygon fill="#000000" fill-opacity="0.200000" stroke="#000000" stroke-width="2" stroke-opacity="0.200000" points="384.64,-240.7 390.99,-241.07 386.25,-236.82 384.64,-240.7"/>
</g>
<!-- public/src/ui/navigation.js&#45;&gt;public/src/api/client.js -->
<g id="edge45" class="edge">
<title>public/src/ui/navigation.js&#45;&gt;public/src/api/client.js</title>
<path fill="none" stroke="#000000" stroke-width="2" stroke-opacity="0.200000" d="M291.2,-148.23C278.55,-156.99 261.73,-171.17 254.25,-188.56 247.27,-204.79 247.16,-331.37 254.25,-347.56 257.61,-355.23 264.1,-360.85 271.41,-364.95"/>
<polygon fill="#000000" fill-opacity="0.200000" stroke="#000000" stroke-width="2" stroke-opacity="0.200000" points="270.51,-366.84 276.83,-367.52 272.31,-363.05 270.51,-366.84"/>
</g>
<!-- public/src/ui/navigation.js&#45;&gt;public/src/core/state.js -->
<g id="edge47" class="edge">
<title>public/src/ui/navigation.js&#45;&gt;public/src/core/state.js</title>
<path fill="none" stroke="#000000" stroke-width="2" stroke-opacity="0.200000" d="M291.53,-148.1C272.28,-161.3 243.21,-186.35 254.25,-211.56 257.49,-218.97 264.02,-223.89 271.41,-227.15"/>
<polygon fill="#000000" fill-opacity="0.200000" stroke="#000000" stroke-width="2" stroke-opacity="0.200000" points="270.44,-229.04 276.8,-229.07 271.85,-225.08 270.44,-229.04"/>
</g>
<!-- public/src/ui/navigation.js&#45;&gt;public/src/core/config.js -->
<g id="edge46" class="edge">
<title>public/src/ui/navigation.js&#45;&gt;public/src/core/config.js</title>
<path fill="none" stroke="#000000" stroke-width="2" stroke-opacity="0.200000" d="M307,-148.06C307,-160.16 307,-172.27 307,-184.38"/>
<polygon fill="#000000" fill-opacity="0.200000" stroke="#000000" stroke-width="2" stroke-opacity="0.200000" points="304.9,-184.16 307,-190.16 309.1,-184.16 304.9,-184.16"/>
</g>
<!-- public/src/prompts/prompt&#45;manager.js&#45;&gt;public/src/core/state.js -->
<g id="edge39" class="edge">
<title>public/src/prompts/prompt&#45;manager.js&#45;&gt;public/src/core/state.js</title>
<g id="a_edge39"><a xlink:title="no&#45;circular">
<path fill="none" stroke="orange" stroke-width="2" d="M292.18,-81.29C279.42,-90.65 261.88,-106.08 254.25,-124.56 246.87,-142.43 246.5,-193.85 254.25,-211.56 256.18,-215.97 259.28,-219.5 263.03,-222.33"/>
<polygon fill="orange" stroke="orange" stroke-width="2" points="270.59,-228.17 276.91,-228.81 272.36,-224.37 270.59,-228.17"/>
<polyline fill="none" stroke="orange" stroke-width="2" points="270.57,-225.85 267.85,-224.58"/>
<ellipse fill="none" stroke="orange" stroke-width="2" cx="264.77" cy="-223.14" rx="2.4" ry="2.4"/>
</a>
</g>
<text xml:space="preserve" text-anchor="middle" x="270.86" y="-152.25" font-family="Helvetica,sans-Serif" font-size="9.00" fill="orange">no&#45;circular</text>
</g>
<!-- public/src/prompts/prompt&#45;ui.js&#45;&gt;public/src/core/state.js -->
<g id="edge41" class="edge">
<title>public/src/prompts/prompt&#45;ui.js&#45;&gt;public/src/core/state.js</title>
<path fill="none" stroke="#000000" stroke-width="2" stroke-opacity="0.200000" d="M211.5,-81.11C223.49,-89.43 239.44,-102.66 247.75,-118.56 268.3,-157.89 232.82,-183.07 260.75,-217.56 263.63,-221.11 267.35,-223.87 271.42,-226.02"/>
<polygon fill="#000000" fill-opacity="0.200000" stroke="#000000" stroke-width="2" stroke-opacity="0.200000" points="270.42,-227.88 276.76,-228.28 272.05,-224.01 270.42,-227.88"/>
</g>
<!-- public/src/prompts/prompt&#45;ui.js&#45;&gt;public/src/core/config.js -->
<g id="edge40" class="edge">
<title>public/src/prompts/prompt&#45;ui.js&#45;&gt;public/src/core/config.js</title>
<path fill="none" stroke="#000000" stroke-width="2" stroke-opacity="0.200000" d="M211.14,-81.3C222.91,-89.75 238.77,-103.03 247.75,-118.56 261.2,-141.8 244.68,-156.04 260.75,-177.56 263.85,-181.7 267.84,-185.25 272.18,-188.26"/>
<polygon fill="#000000" fill-opacity="0.200000" stroke="#000000" stroke-width="2" stroke-opacity="0.200000" points="270.89,-189.93 277.11,-191.25 273.07,-186.34 270.89,-189.93"/>
</g>
<!-- public/src/prompts/prompt&#45;ui.js&#45;&gt;public/src/prompts/prompt&#45;manager.js -->
<g id="edge43" class="edge">
<title>public/src/prompts/prompt&#45;ui.js&#45;&gt;public/src/prompts/prompt&#45;manager.js</title>
<path fill="none" stroke="#000000" stroke-width="2" stroke-opacity="0.200000" d="M227.61,-71.56C235.16,-71.56 243.43,-71.56 251.68,-71.56"/>
<polygon fill="#000000" fill-opacity="0.200000" stroke="#000000" stroke-width="2" stroke-opacity="0.200000" points="251.56,-73.66 257.56,-71.56 251.56,-69.46 251.56,-73.66"/>
</g>
<!-- public/src/prompts/prompt&#45;ui.js&#45;&gt;public/src/utils/dom&#45;helpers.js -->
<g id="edge42" class="edge">
<title>public/src/prompts/prompt&#45;ui.js&#45;&gt;public/src/utils/dom&#45;helpers.js</title>
<path fill="none" stroke="#000000" stroke-width="2" stroke-opacity="0.200000" d="M227.27,-63.37C269.76,-53.07 342.73,-38.75 361.25,-56.56 377.76,-72.44 355.3,-244.39 369.25,-262.56 371.05,-264.91 373.2,-266.92 375.57,-268.65"/>
<polygon fill="#000000" fill-opacity="0.200000" stroke="#000000" stroke-width="2" stroke-opacity="0.200000" points="374.37,-270.38 380.63,-271.51 376.44,-266.73 374.37,-270.38"/>
</g>
<!-- public/src/ui/modals.js&#45;&gt;public/src/ui/navigation.js -->
<g id="edge44" class="edge">
<title>public/src/ui/modals.js&#45;&gt;public/src/ui/navigation.js</title>
<path fill="none" stroke="#000000" stroke-width="2" stroke-opacity="0.200000" d="M223,-138.56C235.3,-138.56 250.17,-138.56 263.9,-138.56"/>
<polygon fill="#000000" fill-opacity="0.200000" stroke="#000000" stroke-width="2" stroke-opacity="0.200000" points="263.69,-140.66 269.69,-138.56 263.69,-136.46 263.69,-140.66"/>
</g>
<!-- public/src/migration/data&#45;migrator.js -->
<g id="node17" class="node">
<title>public/src/migration/data&#45;migrator.js</title>
<g id="a_node17"><a xlink:href="public/src/migration/data-migrator.js" xlink:title="data&#45;migrator.js">
<path fill="#ffffcc" stroke="black" d="M108.58,-325.81C108.58,-325.81 41.92,-325.81 41.92,-325.81 38.83,-325.81 35.75,-322.72 35.75,-319.64 35.75,-319.64 35.75,-313.47 35.75,-313.47 35.75,-310.39 38.83,-307.31 41.92,-307.31 41.92,-307.31 108.58,-307.31 108.58,-307.31 111.67,-307.31 114.75,-310.39 114.75,-313.47 114.75,-313.47 114.75,-319.64 114.75,-319.64 114.75,-322.72 111.67,-325.81 108.58,-325.81"/>
<text xml:space="preserve" text-anchor="start" x="43.75" y="-313.26" font-family="Helvetica,sans-Serif" font-size="9.00">data&#45;migrator.js</text>
</a>
</g>
</g>
<!-- public/src/migration/data&#45;migrator.js&#45;&gt;public/src/api/message&#45;processor.js -->
<g id="edge37" class="edge">
<title>public/src/migration/data&#45;migrator.js&#45;&gt;public/src/api/message&#45;processor.js</title>
<path fill="none" stroke="#000000" stroke-width="2" stroke-opacity="0.200000" d="M89.66,-326.23C101.16,-334.25 118.39,-345.58 134.5,-353.56 141.25,-356.9 148.64,-360.02 155.85,-362.81"/>
<polygon fill="#000000" fill-opacity="0.200000" stroke="#000000" stroke-width="2" stroke-opacity="0.200000" points="154.99,-364.73 161.35,-364.86 156.46,-360.79 154.99,-364.73"/>
</g>
<!-- public/src/migration/data&#45;migrator.js&#45;&gt;public/src/core/config.js -->
<g id="edge38" class="edge">
<title>public/src/migration/data&#45;migrator.js&#45;&gt;public/src/core/config.js</title>
<path fill="none" stroke="#000000" stroke-width="2" stroke-opacity="0.200000" d="M81.56,-307.11C95.1,-283.08 130.19,-221.28 134.5,-218.56 156.45,-204.68 227.53,-202.27 270.99,-202.15"/>
<polygon fill="#000000" fill-opacity="0.200000" stroke="#000000" stroke-width="2" stroke-opacity="0.200000" points="270.79,-204.25 276.79,-202.16 270.79,-200.05 270.79,-204.25"/>
</g>
</g>
</svg>
