<?xml version="1.0" encoding="UTF-8" standalone="no"?>
<!DOCTYPE svg PUBLIC "-//W3C//DTD SVG 1.1//EN"
 "http://www.w3.org/Graphics/SVG/1.1/DTD/svg11.dtd">
<!-- Generated by graphviz version 13.1.1 (20250719.2154)
 -->
<!-- Title: dependency&#45;cruiser output Pages: 1 -->
<svg width="463pt" height="562pt"
 viewBox="0.00 0.00 463.00 562.00" xmlns="http://www.w3.org/2000/svg" xmlns:xlink="http://www.w3.org/1999/xlink">
<g id="graph0" class="graph" transform="scale(1 1) rotate(0) translate(4 557.95)">
<title>dependency&#45;cruiser output</title>
<polygon fill="white" stroke="none" points="-4,4 -4,-557.95 459.25,-557.95 459.25,4 -4,4"/>
<g id="clust1" class="cluster">
<title>cluster_public</title>
<path fill="#ffffff" stroke="black" stroke-width="2" d="M20,-18.95C20,-18.95 435.25,-18.95 435.25,-18.95 441.25,-18.95 447.25,-24.95 447.25,-30.95 447.25,-30.95 447.25,-533.95 447.25,-533.95 447.25,-539.95 441.25,-545.95 435.25,-545.95 435.25,-545.95 20,-545.95 20,-545.95 14,-545.95 8,-539.95 8,-533.95 8,-533.95 8,-30.95 8,-30.95 8,-24.95 14,-18.95 20,-18.95"/>
<text xml:space="preserve" text-anchor="middle" x="227.62" y="-533.4" font-family="Helvetica,sans-Serif" font-weight="bold" font-size="9.00">public</text>
</g>
<g id="clust2" class="cluster">
<title>cluster_public/src</title>
<path fill="#ffffff" stroke="black" stroke-width="2" d="M28,-26.95C28,-26.95 427.25,-26.95 427.25,-26.95 433.25,-26.95 439.25,-32.95 439.25,-38.95 439.25,-38.95 439.25,-506.95 439.25,-506.95 439.25,-512.95 433.25,-518.95 427.25,-518.95 427.25,-518.95 28,-518.95 28,-518.95 22,-518.95 16,-512.95 16,-506.95 16,-506.95 16,-38.95 16,-38.95 16,-32.95 22,-26.95 28,-26.95"/>
<text xml:space="preserve" text-anchor="middle" x="227.62" y="-506.4" font-family="Helvetica,sans-Serif" font-weight="bold" font-size="9.00">src</text>
</g>
<g id="clust3" class="cluster">
<title>cluster_public/src/api</title>
<path fill="#ffffff" stroke="black" stroke-width="2" d="M146.5,-428.95C146.5,-428.95 330,-428.95 330,-428.95 336,-428.95 342,-434.95 342,-440.95 342,-440.95 342,-469.95 342,-469.95 342,-475.95 336,-481.95 330,-481.95 330,-481.95 146.5,-481.95 146.5,-481.95 140.5,-481.95 134.5,-475.95 134.5,-469.95 134.5,-469.95 134.5,-440.95 134.5,-440.95 134.5,-434.95 140.5,-428.95 146.5,-428.95"/>
<text xml:space="preserve" text-anchor="middle" x="238.25" y="-469.4" font-family="Helvetica,sans-Serif" font-weight="bold" font-size="9.00">api</text>
</g>
<g id="clust4" class="cluster">
<title>cluster_public/src/core</title>
<path fill="#ffffff" stroke="black" stroke-width="2" d="M284,-336.95C284,-336.95 419.25,-336.95 419.25,-336.95 425.25,-336.95 431.25,-342.95 431.25,-348.95 431.25,-348.95 431.25,-408.95 431.25,-408.95 431.25,-414.95 425.25,-420.95 419.25,-420.95 419.25,-420.95 284,-420.95 284,-420.95 278,-420.95 272,-414.95 272,-408.95 272,-408.95 272,-348.95 272,-348.95 272,-342.95 278,-336.95 284,-336.95"/>
<text xml:space="preserve" text-anchor="middle" x="351.62" y="-408.4" font-family="Helvetica,sans-Serif" font-weight="bold" font-size="9.00">core</text>
</g>
<g id="clust5" class="cluster">
<title>cluster_public/src/events</title>
<path fill="#ffffff" stroke="black" stroke-width="2" d="M36,-220.95C36,-220.95 114.5,-220.95 114.5,-220.95 120.5,-220.95 126.5,-226.95 126.5,-232.95 126.5,-232.95 126.5,-261.95 126.5,-261.95 126.5,-267.95 120.5,-273.95 114.5,-273.95 114.5,-273.95 36,-273.95 36,-273.95 30,-273.95 24,-267.95 24,-261.95 24,-261.95 24,-232.95 24,-232.95 24,-226.95 30,-220.95 36,-220.95"/>
<text xml:space="preserve" text-anchor="middle" x="75.25" y="-261.4" font-family="Helvetica,sans-Serif" font-weight="bold" font-size="9.00">events</text>
</g>
<g id="clust6" class="cluster">
<title>cluster_public/src/file&#45;system</title>
<path fill="#ffffff" stroke="black" stroke-width="2" d="M46.12,-284.95C46.12,-284.95 229.12,-284.95 229.12,-284.95 235.12,-284.95 241.12,-290.95 241.12,-296.95 241.12,-296.95 241.12,-325.95 241.12,-325.95 241.12,-331.95 235.12,-337.95 229.12,-337.95 229.12,-337.95 46.12,-337.95 46.12,-337.95 40.12,-337.95 34.12,-331.95 34.12,-325.95 34.12,-325.95 34.12,-296.95 34.12,-296.95 34.12,-290.95 40.12,-284.95 46.12,-284.95"/>
<text xml:space="preserve" text-anchor="middle" x="137.62" y="-325.4" font-family="Helvetica,sans-Serif" font-weight="bold" font-size="9.00">file&#45;system</text>
</g>
<g id="clust7" class="cluster">
<title>cluster_public/src/prompts</title>
<path fill="#ffffff" stroke="black" stroke-width="2" d="M167.12,-54.95C167.12,-54.95 349.25,-54.95 349.25,-54.95 355.25,-54.95 361.25,-60.95 361.25,-66.95 361.25,-66.95 361.25,-95.95 361.25,-95.95 361.25,-101.95 355.25,-107.95 349.25,-107.95 349.25,-107.95 167.12,-107.95 167.12,-107.95 161.12,-107.95 155.12,-101.95 155.12,-95.95 155.12,-95.95 155.12,-66.95 155.12,-66.95 155.12,-60.95 161.12,-54.95 167.12,-54.95"/>
<text xml:space="preserve" text-anchor="middle" x="258.19" y="-95.4" font-family="Helvetica,sans-Serif" font-weight="bold" font-size="9.00">prompts</text>
</g>
<g id="clust8" class="cluster">
<title>cluster_public/src/ui</title>
<path fill="#ffffff" stroke="black" stroke-width="2" d="M170.12,-121.95C170.12,-121.95 336.88,-121.95 336.88,-121.95 342.88,-121.95 348.88,-127.95 348.88,-133.95 348.88,-133.95 348.88,-193.95 348.88,-193.95 348.88,-199.95 342.88,-205.95 336.88,-205.95 336.88,-205.95 170.12,-205.95 170.12,-205.95 164.12,-205.95 158.12,-199.95 158.12,-193.95 158.12,-193.95 158.12,-133.95 158.12,-133.95 158.12,-127.95 164.12,-121.95 170.12,-121.95"/>
<text xml:space="preserve" text-anchor="middle" x="253.5" y="-193.4" font-family="Helvetica,sans-Serif" font-weight="bold" font-size="9.00">ui</text>
</g>
<g id="clust9" class="cluster">
<title>cluster_public/src/utils</title>
<path fill="#ffffff" stroke="black" stroke-width="2" d="M272.62,-213.95C272.62,-213.95 341.38,-213.95 341.38,-213.95 347.38,-213.95 353.38,-219.95 353.38,-225.95 353.38,-225.95 353.38,-316.95 353.38,-316.95 353.38,-322.95 347.38,-328.95 341.38,-328.95 341.38,-328.95 272.62,-328.95 272.62,-328.95 266.62,-328.95 260.62,-322.95 260.62,-316.95 260.62,-316.95 260.62,-225.95 260.62,-225.95 260.62,-219.95 266.62,-213.95 272.62,-213.95"/>
<text xml:space="preserve" text-anchor="middle" x="307" y="-316.4" font-family="Helvetica,sans-Serif" font-weight="bold" font-size="9.00">utils</text>
</g>
<!-- public/src/api/client.js -->
<g id="node1" class="node">
<title>public/src/api/client.js</title>
<g id="a_node1"><a xlink:href="public/src/api/client.js" xlink:title="client.js">
<path fill="#ffffcc" stroke="black" d="M327.83,-455.2C327.83,-455.2 286.17,-455.2 286.17,-455.2 283.08,-455.2 280,-452.12 280,-449.04 280,-449.04 280,-442.87 280,-442.87 280,-439.79 283.08,-436.7 286.17,-436.7 286.17,-436.7 327.83,-436.7 327.83,-436.7 330.92,-436.7 334,-439.79 334,-442.87 334,-442.87 334,-449.04 334,-449.04 334,-452.12 330.92,-455.2 327.83,-455.2"/>
<text xml:space="preserve" text-anchor="start" x="291.62" y="-442.65" font-family="Helvetica,sans-Serif" font-size="9.00">client.js</text>
</a>
</g>
</g>
<!-- public/src/core/state.js -->
<g id="node2" class="node">
<title>public/src/core/state.js</title>
<g id="a_node2"><a xlink:href="public/src/core/state.js" xlink:title="state.js">
<path fill="#ffffcc" stroke="black" d="M417.08,-378.2C417.08,-378.2 375.42,-378.2 375.42,-378.2 372.33,-378.2 369.25,-375.12 369.25,-372.04 369.25,-372.04 369.25,-365.87 369.25,-365.87 369.25,-362.79 372.33,-359.7 375.42,-359.7 375.42,-359.7 417.08,-359.7 417.08,-359.7 420.17,-359.7 423.25,-362.79 423.25,-365.87 423.25,-365.87 423.25,-372.04 423.25,-372.04 423.25,-375.12 420.17,-378.2 417.08,-378.2"/>
<text xml:space="preserve" text-anchor="start" x="382" y="-365.65" font-family="Helvetica,sans-Serif" font-size="9.00">state.js</text>
</a>
</g>
</g>
<!-- public/src/api/client.js&#45;&gt;public/src/core/state.js -->
<g id="edge1" class="edge">
<title>public/src/api/client.js&#45;&gt;public/src/core/state.js</title>
<path fill="none" stroke="#000000" stroke-width="2" stroke-opacity="0.200000" d="M334.23,-439.96C343.5,-436.9 353.52,-432.41 361.25,-425.95 373.77,-415.49 382.85,-399.16 388.45,-386.65"/>
<polygon fill="#000000" fill-opacity="0.200000" stroke="#000000" stroke-width="2" stroke-opacity="0.200000" points="390.37,-387.5 390.75,-381.16 386.5,-385.88 390.37,-387.5"/>
</g>
<!-- public/src/prompts/prompt&#45;manager.js -->
<g id="node11" class="node">
<title>public/src/prompts/prompt&#45;manager.js</title>
<g id="a_node11"><a xlink:href="public/src/prompts/prompt-manager.js" xlink:title="prompt&#45;manager.js">
<path fill="#ffffcc" stroke="black" d="M347.08,-81.2C347.08,-81.2 266.92,-81.2 266.92,-81.2 263.83,-81.2 260.75,-78.12 260.75,-75.04 260.75,-75.04 260.75,-68.87 260.75,-68.87 260.75,-65.79 263.83,-62.7 266.92,-62.7 266.92,-62.7 347.08,-62.7 347.08,-62.7 350.17,-62.7 353.25,-65.79 353.25,-68.87 353.25,-68.87 353.25,-75.04 353.25,-75.04 353.25,-78.12 350.17,-81.2 347.08,-81.2"/>
<text xml:space="preserve" text-anchor="start" x="268.75" y="-68.65" font-family="Helvetica,sans-Serif" font-size="9.00">prompt&#45;manager.js</text>
</a>
</g>
</g>
<!-- public/src/core/state.js&#45;&gt;public/src/prompts/prompt&#45;manager.js -->
<g id="edge14" class="edge">
<title>public/src/core/state.js&#45;&gt;public/src/prompts/prompt&#45;manager.js</title>
<g id="a_edge14"><a xlink:title="no&#45;circular">
<path fill="none" stroke="orange" stroke-width="2" d="M394.73,-359.42C392.63,-319.44 383.83,-167.14 361.25,-124.95 354.53,-112.39 343.02,-101.59 332.43,-92.98"/>
<polygon fill="orange" stroke="orange" stroke-width="2" points="326.2,-85.49 320.17,-83.48 323.62,-88.81 326.2,-85.49"/>
<polyline fill="none" stroke="orange" stroke-width="2" points="325.7,-87.77 328.07,-89.6"/>
<ellipse fill="none" stroke="orange" stroke-width="2" cx="330.76" cy="-91.69" rx="2.4" ry="2.4"/>
</a>
</g>
<text xml:space="preserve" text-anchor="middle" x="360.82" y="-208.54" font-family="Helvetica,sans-Serif" font-size="9.00" fill="orange">no&#45;circular</text>
</g>
<!-- public/src/api/message&#45;processor.js -->
<g id="node3" class="node">
<title>public/src/api/message&#45;processor.js</title>
<g id="a_node3"><a xlink:href="public/src/api/message-processor.js" xlink:title="message&#45;processor.js">
<path fill="#ffffcc" stroke="black" d="M241.58,-455.2C241.58,-455.2 148.67,-455.2 148.67,-455.2 145.58,-455.2 142.5,-452.12 142.5,-449.04 142.5,-449.04 142.5,-442.87 142.5,-442.87 142.5,-439.79 145.58,-436.7 148.67,-436.7 148.67,-436.7 241.58,-436.7 241.58,-436.7 244.67,-436.7 247.75,-439.79 247.75,-442.87 247.75,-442.87 247.75,-449.04 247.75,-449.04 247.75,-452.12 244.67,-455.2 241.58,-455.2"/>
<text xml:space="preserve" text-anchor="start" x="150.5" y="-442.65" font-family="Helvetica,sans-Serif" font-size="9.00">message&#45;processor.js</text>
</a>
</g>
</g>
<!-- public/src/api/message&#45;processor.js&#45;&gt;public/src/api/client.js -->
<g id="edge7" class="edge">
<title>public/src/api/message&#45;processor.js&#45;&gt;public/src/api/client.js</title>
<path fill="none" stroke="#000000" stroke-width="2" stroke-opacity="0.200000" d="M248.17,-445.95C255.81,-445.95 263.53,-445.95 270.73,-445.95"/>
<polygon fill="#000000" fill-opacity="0.200000" stroke="#000000" stroke-width="2" stroke-opacity="0.200000" points="270.5,-448.05 276.5,-445.95 270.5,-443.85 270.5,-448.05"/>
</g>
<!-- public/src/api/message&#45;processor.js&#45;&gt;public/src/core/state.js -->
<g id="edge3" class="edge">
<title>public/src/api/message&#45;processor.js&#45;&gt;public/src/core/state.js</title>
<path fill="none" stroke="#000000" stroke-width="2" stroke-opacity="0.200000" d="M237.03,-436.23C244.85,-434.43 252.98,-432.6 260.62,-430.95 305.2,-421.34 322.22,-434.52 361.25,-410.95 371.21,-404.94 379.5,-394.89 385.4,-386.13"/>
<polygon fill="#000000" fill-opacity="0.200000" stroke="#000000" stroke-width="2" stroke-opacity="0.200000" points="387.11,-387.37 388.52,-381.17 383.55,-385.13 387.11,-387.37"/>
</g>
<!-- public/src/core/config.js -->
<g id="node4" class="node">
<title>public/src/core/config.js</title>
<g id="a_node4"><a xlink:href="public/src/core/config.js" xlink:title="config.js">
<path fill="#ffffcc" stroke="black" d="M327.83,-363.2C327.83,-363.2 286.17,-363.2 286.17,-363.2 283.08,-363.2 280,-360.12 280,-357.04 280,-357.04 280,-350.87 280,-350.87 280,-347.79 283.08,-344.7 286.17,-344.7 286.17,-344.7 327.83,-344.7 327.83,-344.7 330.92,-344.7 334,-347.79 334,-350.87 334,-350.87 334,-357.04 334,-357.04 334,-360.12 330.92,-363.2 327.83,-363.2"/>
<text xml:space="preserve" text-anchor="start" x="290.12" y="-350.65" font-family="Helvetica,sans-Serif" font-size="9.00">config.js</text>
</a>
</g>
</g>
<!-- public/src/api/message&#45;processor.js&#45;&gt;public/src/core/config.js -->
<g id="edge2" class="edge">
<title>public/src/api/message&#45;processor.js&#45;&gt;public/src/core/config.js</title>
<path fill="none" stroke="#000000" stroke-width="2" stroke-opacity="0.200000" d="M201.85,-436.37C211.84,-420.4 233.97,-388.31 260.62,-369.95 264.06,-367.59 267.87,-365.54 271.79,-363.77"/>
<polygon fill="#000000" fill-opacity="0.200000" stroke="#000000" stroke-width="2" stroke-opacity="0.200000" points="272.3,-365.83 277.09,-361.65 270.74,-361.93 272.3,-365.83"/>
</g>
<!-- public/src/file&#45;system/diff&#45;viewer.js -->
<g id="node5" class="node">
<title>public/src/file&#45;system/diff&#45;viewer.js</title>
<g id="a_node5"><a xlink:href="public/src/file-system/diff-viewer.js" xlink:title="diff&#45;viewer.js">
<path fill="#ffffcc" stroke="black" d="M102.21,-311.2C102.21,-311.2 48.29,-311.2 48.29,-311.2 45.21,-311.2 42.12,-308.12 42.12,-305.04 42.12,-305.04 42.12,-298.87 42.12,-298.87 42.12,-295.79 45.21,-292.7 48.29,-292.7 48.29,-292.7 102.21,-292.7 102.21,-292.7 105.29,-292.7 108.38,-295.79 108.38,-298.87 108.38,-298.87 108.38,-305.04 108.38,-305.04 108.38,-308.12 105.29,-311.2 102.21,-311.2"/>
<text xml:space="preserve" text-anchor="start" x="50.12" y="-298.65" font-family="Helvetica,sans-Serif" font-size="9.00">diff&#45;viewer.js</text>
</a>
</g>
</g>
<!-- public/src/api/message&#45;processor.js&#45;&gt;public/src/file&#45;system/diff&#45;viewer.js -->
<g id="edge4" class="edge">
<title>public/src/api/message&#45;processor.js&#45;&gt;public/src/file&#45;system/diff&#45;viewer.js</title>
<path fill="none" stroke="#000000" stroke-width="2" stroke-opacity="0.200000" d="M186.21,-436.28C166.37,-412.04 114.34,-348.49 89.64,-318.31"/>
<polygon fill="#000000" fill-opacity="0.200000" stroke="#000000" stroke-width="2" stroke-opacity="0.200000" points="91.33,-317.06 85.9,-313.74 88.08,-319.72 91.33,-317.06"/>
</g>
<!-- public/src/file&#45;system/file&#45;manager.js -->
<g id="node6" class="node">
<title>public/src/file&#45;system/file&#45;manager.js</title>
<g id="a_node6"><a xlink:href="public/src/file-system/file-manager.js" xlink:title="file&#45;manager.js">
<path fill="#ffffcc" stroke="black" d="M226.96,-311.2C226.96,-311.2 163.29,-311.2 163.29,-311.2 160.21,-311.2 157.12,-308.12 157.12,-305.04 157.12,-305.04 157.12,-298.87 157.12,-298.87 157.12,-295.79 160.21,-292.7 163.29,-292.7 163.29,-292.7 226.96,-292.7 226.96,-292.7 230.04,-292.7 233.12,-295.79 233.12,-298.87 233.12,-298.87 233.12,-305.04 233.12,-305.04 233.12,-308.12 230.04,-311.2 226.96,-311.2"/>
<text xml:space="preserve" text-anchor="start" x="165.12" y="-298.65" font-family="Helvetica,sans-Serif" font-size="9.00">file&#45;manager.js</text>
</a>
</g>
</g>
<!-- public/src/api/message&#45;processor.js&#45;&gt;public/src/file&#45;system/file&#45;manager.js -->
<g id="edge5" class="edge">
<title>public/src/api/message&#45;processor.js&#45;&gt;public/src/file&#45;system/file&#45;manager.js</title>
<path fill="none" stroke="#000000" stroke-width="2" stroke-opacity="0.200000" d="M195.12,-436.24C195.12,-397.59 195.12,-358.94 195.12,-320.29"/>
<polygon fill="#000000" fill-opacity="0.200000" stroke="#000000" stroke-width="2" stroke-opacity="0.200000" points="197.23,-320.54 195.13,-314.54 193.03,-320.54 197.23,-320.54"/>
</g>
<!-- public/src/utils/markdown.js -->
<g id="node7" class="node">
<title>public/src/utils/markdown.js</title>
<g id="a_node7"><a xlink:href="public/src/utils/markdown.js" xlink:title="markdown.js">
<path fill="#ffffcc" stroke="black" d="M334.71,-302.2C334.71,-302.2 279.29,-302.2 279.29,-302.2 276.21,-302.2 273.12,-299.12 273.12,-296.04 273.12,-296.04 273.12,-289.87 273.12,-289.87 273.12,-286.79 276.21,-283.7 279.29,-283.7 279.29,-283.7 334.71,-283.7 334.71,-283.7 337.79,-283.7 340.88,-286.79 340.88,-289.87 340.88,-289.87 340.88,-296.04 340.88,-296.04 340.88,-299.12 337.79,-302.2 334.71,-302.2"/>
<text xml:space="preserve" text-anchor="start" x="281.12" y="-289.65" font-family="Helvetica,sans-Serif" font-size="9.00">markdown.js</text>
</a>
</g>
</g>
<!-- public/src/api/message&#45;processor.js&#45;&gt;public/src/utils/markdown.js -->
<g id="edge6" class="edge">
<title>public/src/api/message&#45;processor.js&#45;&gt;public/src/utils/markdown.js</title>
<path fill="none" stroke="#000000" stroke-width="2" stroke-opacity="0.200000" d="M200.4,-436.33C209.63,-416.13 232.86,-368.35 260.62,-333.95 268.23,-324.53 278.07,-315.37 286.64,-308.1"/>
<polygon fill="#000000" fill-opacity="0.200000" stroke="#000000" stroke-width="2" stroke-opacity="0.200000" points="287.83,-309.84 291.12,-304.4 285.16,-306.6 287.83,-309.84"/>
</g>
<!-- public/src/file&#45;system/diff&#45;viewer.js&#45;&gt;public/src/core/state.js -->
<g id="edge26" class="edge">
<title>public/src/file&#45;system/diff&#45;viewer.js&#45;&gt;public/src/core/state.js</title>
<path fill="none" stroke="#000000" stroke-width="2" stroke-opacity="0.200000" d="M75.8,-311.28C74.88,-342.32 76.63,-442.64 134.5,-484.95 215.85,-544.43 280.59,-545.37 361.25,-484.95 391.62,-462.21 396.05,-413.73 396.03,-387.21"/>
<polygon fill="#000000" fill-opacity="0.200000" stroke="#000000" stroke-width="2" stroke-opacity="0.200000" points="398.14,-387.51 395.92,-381.55 393.94,-387.59 398.14,-387.51"/>
</g>
<!-- public/src/file&#45;system/diff&#45;viewer.js&#45;&gt;public/src/core/config.js -->
<g id="edge25" class="edge">
<title>public/src/file&#45;system/diff&#45;viewer.js&#45;&gt;public/src/core/config.js</title>
<path fill="none" stroke="#000000" stroke-width="2" stroke-opacity="0.200000" d="M108.85,-310.59C117.2,-312.74 126.17,-314.98 134.5,-316.95 181.57,-328.09 236.24,-339.65 270.97,-346.82"/>
<polygon fill="#000000" fill-opacity="0.200000" stroke="#000000" stroke-width="2" stroke-opacity="0.200000" points="270.51,-348.87 276.81,-348.02 271.36,-344.76 270.51,-348.87"/>
</g>
<!-- public/src/file&#45;system/diff&#45;viewer.js&#45;&gt;public/src/file&#45;system/file&#45;manager.js -->
<g id="edge30" class="edge">
<title>public/src/file&#45;system/diff&#45;viewer.js&#45;&gt;public/src/file&#45;system/file&#45;manager.js</title>
<path fill="none" stroke="#000000" stroke-width="2" stroke-opacity="0.200000" d="M108.77,-301.95C120.84,-301.95 134.78,-301.95 147.84,-301.95"/>
<polygon fill="#000000" fill-opacity="0.200000" stroke="#000000" stroke-width="2" stroke-opacity="0.200000" points="147.68,-304.05 153.68,-301.95 147.68,-299.85 147.68,-304.05"/>
</g>
<!-- public/src/ui/navigation.js -->
<g id="node10" class="node">
<title>public/src/ui/navigation.js</title>
<g id="a_node10"><a xlink:href="public/src/ui/navigation.js" xlink:title="navigation.js">
<path fill="#ffffcc" stroke="black" d="M334.71,-179.2C334.71,-179.2 279.29,-179.2 279.29,-179.2 276.21,-179.2 273.12,-176.12 273.12,-173.04 273.12,-173.04 273.12,-166.87 273.12,-166.87 273.12,-163.79 276.21,-160.7 279.29,-160.7 279.29,-160.7 334.71,-160.7 334.71,-160.7 337.79,-160.7 340.88,-163.79 340.88,-166.87 340.88,-166.87 340.88,-173.04 340.88,-173.04 340.88,-176.12 337.79,-179.2 334.71,-179.2"/>
<text xml:space="preserve" text-anchor="start" x="281.12" y="-166.65" font-family="Helvetica,sans-Serif" font-size="9.00">navigation.js</text>
</a>
</g>
</g>
<!-- public/src/file&#45;system/diff&#45;viewer.js&#45;&gt;public/src/ui/navigation.js -->
<g id="edge28" class="edge">
<title>public/src/file&#45;system/diff&#45;viewer.js&#45;&gt;public/src/ui/navigation.js</title>
<path fill="none" stroke="#000000" stroke-width="2" stroke-opacity="0.200000" d="M106.02,-292.24C113.62,-288.51 121.14,-283.52 126.5,-276.95 135.23,-266.27 125.56,-257.47 134.5,-246.95 152.67,-225.58 223.78,-198.19 268.53,-182.5"/>
<polygon fill="#000000" fill-opacity="0.200000" stroke="#000000" stroke-width="2" stroke-opacity="0.200000" points="269,-184.56 273.98,-180.61 267.62,-180.59 269,-184.56"/>
</g>
<!-- public/src/ui/file&#45;view.js -->
<g id="node13" class="node">
<title>public/src/ui/file&#45;view.js</title>
<g id="a_node13"><a xlink:href="public/src/ui/file-view.js" xlink:title="file&#45;view.js">
<path fill="#ffffcc" stroke="black" d="M217.96,-179.2C217.96,-179.2 172.29,-179.2 172.29,-179.2 169.21,-179.2 166.12,-176.12 166.12,-173.04 166.12,-173.04 166.12,-166.87 166.12,-166.87 166.12,-163.79 169.21,-160.7 172.29,-160.7 172.29,-160.7 217.96,-160.7 217.96,-160.7 221.04,-160.7 224.12,-163.79 224.12,-166.87 224.12,-166.87 224.12,-173.04 224.12,-173.04 224.12,-176.12 221.04,-179.2 217.96,-179.2"/>
<text xml:space="preserve" text-anchor="start" x="174.12" y="-166.65" font-family="Helvetica,sans-Serif" font-size="9.00">file&#45;view.js</text>
</a>
</g>
</g>
<!-- public/src/file&#45;system/diff&#45;viewer.js&#45;&gt;public/src/ui/file&#45;view.js -->
<g id="edge27" class="edge">
<title>public/src/file&#45;system/diff&#45;viewer.js&#45;&gt;public/src/ui/file&#45;view.js</title>
<path fill="none" stroke="#000000" stroke-width="2" stroke-opacity="0.200000" d="M107.81,-292.27C115.03,-288.59 121.92,-283.62 126.5,-276.95 147.97,-245.67 111.37,-222.03 134.5,-191.95 140.21,-184.53 148.69,-179.61 157.47,-176.35"/>
<polygon fill="#000000" fill-opacity="0.200000" stroke="#000000" stroke-width="2" stroke-opacity="0.200000" points="157.92,-178.41 163.01,-174.61 156.66,-174.4 157.92,-178.41"/>
</g>
<!-- public/src/utils/dom&#45;helpers.js -->
<g id="node16" class="node">
<title>public/src/utils/dom&#45;helpers.js</title>
<g id="a_node16"><a xlink:href="public/src/utils/dom-helpers.js" xlink:title="dom&#45;helpers.js">
<path fill="#ffffcc" stroke="black" d="M339.21,-240.2C339.21,-240.2 274.79,-240.2 274.79,-240.2 271.71,-240.2 268.62,-237.12 268.62,-234.04 268.62,-234.04 268.62,-227.87 268.62,-227.87 268.62,-224.79 271.71,-221.7 274.79,-221.7 274.79,-221.7 339.21,-221.7 339.21,-221.7 342.29,-221.7 345.38,-224.79 345.38,-227.87 345.38,-227.87 345.38,-234.04 345.38,-234.04 345.38,-237.12 342.29,-240.2 339.21,-240.2"/>
<text xml:space="preserve" text-anchor="start" x="276.62" y="-227.65" font-family="Helvetica,sans-Serif" font-size="9.00">dom&#45;helpers.js</text>
</a>
</g>
</g>
<!-- public/src/file&#45;system/diff&#45;viewer.js&#45;&gt;public/src/utils/dom&#45;helpers.js -->
<g id="edge29" class="edge">
<title>public/src/file&#45;system/diff&#45;viewer.js&#45;&gt;public/src/utils/dom&#45;helpers.js</title>
<path fill="none" stroke="#000000" stroke-width="2" stroke-opacity="0.200000" d="M107.71,-292.23C148.85,-279.52 220.93,-257.24 265.93,-243.34"/>
<polygon fill="#000000" fill-opacity="0.200000" stroke="#000000" stroke-width="2" stroke-opacity="0.200000" points="266.54,-245.34 271.66,-241.57 265.3,-241.33 266.54,-245.34"/>
</g>
<!-- public/src/file&#45;system/file&#45;manager.js&#45;&gt;public/src/core/state.js -->
<g id="edge32" class="edge">
<title>public/src/file&#45;system/file&#45;manager.js&#45;&gt;public/src/core/state.js</title>
<path fill="none" stroke="#000000" stroke-width="2" stroke-opacity="0.200000" d="M198.99,-311.51C205.76,-332.17 224.94,-380.72 260.62,-399.95 299.99,-421.17 319.55,-416.11 361.25,-399.95 369.17,-396.88 376.38,-391.01 382.1,-385.2"/>
<polygon fill="#000000" fill-opacity="0.200000" stroke="#000000" stroke-width="2" stroke-opacity="0.200000" points="383.6,-386.68 386.06,-380.82 380.48,-383.86 383.6,-386.68"/>
</g>
<!-- public/src/file&#45;system/file&#45;manager.js&#45;&gt;public/src/core/config.js -->
<g id="edge31" class="edge">
<title>public/src/file&#45;system/file&#45;manager.js&#45;&gt;public/src/core/config.js</title>
<path fill="none" stroke="#000000" stroke-width="2" stroke-opacity="0.200000" d="M216.53,-311.61C233.73,-319.75 258.5,-331.47 277.63,-340.52"/>
<polygon fill="#000000" fill-opacity="0.200000" stroke="#000000" stroke-width="2" stroke-opacity="0.200000" points="276.64,-342.38 282.96,-343.05 278.44,-338.59 276.64,-342.38"/>
</g>
<!-- public/src/file&#45;system/file&#45;manager.js&#45;&gt;public/src/ui/navigation.js -->
<g id="edge34" class="edge">
<title>public/src/file&#45;system/file&#45;manager.js&#45;&gt;public/src/ui/navigation.js</title>
<path fill="none" stroke="#000000" stroke-width="2" stroke-opacity="0.200000" d="M201.9,-292.41C212.5,-275.26 236.19,-238.46 260.62,-210.95 268.78,-201.78 278.82,-192.52 287.39,-185.14"/>
<polygon fill="#000000" fill-opacity="0.200000" stroke="#000000" stroke-width="2" stroke-opacity="0.200000" points="288.62,-186.85 291.85,-181.37 285.91,-183.64 288.62,-186.85"/>
</g>
<!-- public/src/file&#45;system/file&#45;manager.js&#45;&gt;public/src/ui/file&#45;view.js -->
<g id="edge33" class="edge">
<title>public/src/file&#45;system/file&#45;manager.js&#45;&gt;public/src/ui/file&#45;view.js</title>
<path fill="none" stroke="#000000" stroke-width="2" stroke-opacity="0.200000" d="M195.12,-292.39C195.12,-257.69 195.12,-223 195.12,-188.31"/>
<polygon fill="#000000" fill-opacity="0.200000" stroke="#000000" stroke-width="2" stroke-opacity="0.200000" points="197.23,-188.52 195.13,-182.52 193.03,-188.52 197.23,-188.52"/>
</g>
<!-- public/src/utils/helpers.js -->
<g id="node15" class="node">
<title>public/src/utils/helpers.js</title>
<g id="a_node15"><a xlink:href="public/src/utils/helpers.js" xlink:title="helpers.js">
<path fill="#ffffcc" stroke="black" d="M328.71,-271.2C328.71,-271.2 285.29,-271.2 285.29,-271.2 282.21,-271.2 279.12,-268.12 279.12,-265.04 279.12,-265.04 279.12,-258.87 279.12,-258.87 279.12,-255.79 282.21,-252.7 285.29,-252.7 285.29,-252.7 328.71,-252.7 328.71,-252.7 331.79,-252.7 334.88,-255.79 334.88,-258.87 334.88,-258.87 334.88,-265.04 334.88,-265.04 334.88,-268.12 331.79,-271.2 328.71,-271.2"/>
<text xml:space="preserve" text-anchor="start" x="287.12" y="-258.65" font-family="Helvetica,sans-Serif" font-size="9.00">helpers.js</text>
</a>
</g>
</g>
<!-- public/src/file&#45;system/file&#45;manager.js&#45;&gt;public/src/utils/helpers.js -->
<g id="edge35" class="edge">
<title>public/src/file&#45;system/file&#45;manager.js&#45;&gt;public/src/utils/helpers.js</title>
<path fill="none" stroke="#000000" stroke-width="2" stroke-opacity="0.200000" d="M225.53,-292.28C232.84,-289.71 240.63,-286.85 247.75,-283.95 253.6,-281.58 254.78,-280.34 260.62,-277.95 263.84,-276.64 267.21,-275.33 270.59,-274.06"/>
<polygon fill="#000000" fill-opacity="0.200000" stroke="#000000" stroke-width="2" stroke-opacity="0.200000" points="271.21,-276.07 276.12,-272.04 269.77,-272.13 271.21,-276.07"/>
</g>
<!-- public/src/core/app.js -->
<g id="node8" class="node">
<title>public/src/core/app.js</title>
<g id="a_node8"><a xlink:href="public/src/core/app.js" xlink:title="app.js">
<path fill="#ffffcc" stroke="black" d="M327.83,-394.2C327.83,-394.2 286.17,-394.2 286.17,-394.2 283.08,-394.2 280,-391.12 280,-388.04 280,-388.04 280,-381.87 280,-381.87 280,-378.79 283.08,-375.7 286.17,-375.7 286.17,-375.7 327.83,-375.7 327.83,-375.7 330.92,-375.7 334,-378.79 334,-381.87 334,-381.87 334,-388.04 334,-388.04 334,-391.12 330.92,-394.2 327.83,-394.2"/>
<text xml:space="preserve" text-anchor="start" x="294.62" y="-381.65" font-family="Helvetica,sans-Serif" font-size="9.00">app.js</text>
</a>
</g>
</g>
<!-- public/src/core/app.js&#45;&gt;public/src/api/client.js -->
<g id="edge8" class="edge">
<title>public/src/core/app.js&#45;&gt;public/src/api/client.js</title>
<path fill="none" stroke="#000000" stroke-width="2" stroke-opacity="0.200000" d="M307,-394.48C307,-405.48 307,-416.48 307,-427.48"/>
<polygon fill="#000000" fill-opacity="0.200000" stroke="#000000" stroke-width="2" stroke-opacity="0.200000" points="304.9,-427.28 307,-433.28 309.1,-427.28 304.9,-427.28"/>
</g>
<!-- public/src/core/app.js&#45;&gt;public/src/core/state.js -->
<g id="edge13" class="edge">
<title>public/src/core/app.js&#45;&gt;public/src/core/state.js</title>
<path fill="none" stroke="#000000" stroke-width="2" stroke-opacity="0.200000" d="M334.18,-380.15C342.3,-378.66 351.39,-377 360.02,-375.41"/>
<polygon fill="#000000" fill-opacity="0.200000" stroke="#000000" stroke-width="2" stroke-opacity="0.200000" points="360.29,-377.5 365.81,-374.35 359.53,-373.37 360.29,-377.5"/>
</g>
<!-- public/src/core/app.js&#45;&gt;public/src/api/message&#45;processor.js -->
<g id="edge9" class="edge">
<title>public/src/core/app.js&#45;&gt;public/src/api/message&#45;processor.js</title>
<path fill="none" stroke="#000000" stroke-width="2" stroke-opacity="0.200000" d="M288.59,-394.62C270.38,-404.73 241.63,-420.69 221.03,-432.13"/>
<polygon fill="#000000" fill-opacity="0.200000" stroke="#000000" stroke-width="2" stroke-opacity="0.200000" points="220.17,-430.2 215.94,-434.95 222.2,-433.88 220.17,-430.2"/>
</g>
<!-- public/src/core/app.js&#45;&gt;public/src/file&#45;system/file&#45;manager.js -->
<g id="edge11" class="edge">
<title>public/src/core/app.js&#45;&gt;public/src/file&#45;system/file&#45;manager.js</title>
<path fill="none" stroke="#000000" stroke-width="2" stroke-opacity="0.200000" d="M279.59,-377.96C273.11,-375.63 266.39,-372.66 260.62,-368.95 239.39,-355.29 220.02,-333.31 208.17,-318.28"/>
<polygon fill="#000000" fill-opacity="0.200000" stroke="#000000" stroke-width="2" stroke-opacity="0.200000" points="210.15,-317.4 204.83,-313.93 206.82,-319.96 210.15,-317.4"/>
</g>
<!-- public/src/events/event&#45;handlers.js -->
<g id="node9" class="node">
<title>public/src/events/event&#45;handlers.js</title>
<g id="a_node9"><a xlink:href="public/src/events/event-handlers.js" xlink:title="event&#45;handlers.js">
<path fill="#ffffcc" stroke="black" d="M112.33,-247.2C112.33,-247.2 38.17,-247.2 38.17,-247.2 35.08,-247.2 32,-244.12 32,-241.04 32,-241.04 32,-234.87 32,-234.87 32,-231.79 35.08,-228.7 38.17,-228.7 38.17,-228.7 112.33,-228.7 112.33,-228.7 115.42,-228.7 118.5,-231.79 118.5,-234.87 118.5,-234.87 118.5,-241.04 118.5,-241.04 118.5,-244.12 115.42,-247.2 112.33,-247.2"/>
<text xml:space="preserve" text-anchor="start" x="40" y="-234.65" font-family="Helvetica,sans-Serif" font-size="9.00">event&#45;handlers.js</text>
</a>
</g>
</g>
<!-- public/src/core/app.js&#45;&gt;public/src/events/event&#45;handlers.js -->
<g id="edge10" class="edge">
<title>public/src/core/app.js&#45;&gt;public/src/events/event&#45;handlers.js</title>
<path fill="none" stroke="#000000" stroke-width="2" stroke-opacity="0.200000" d="M279.54,-380.81C272.43,-378.45 265.41,-374.75 260.62,-368.95 235.76,-338.79 274.64,-310.32 247.75,-281.95 212.42,-244.68 183.96,-272.81 134.5,-258.95 126.13,-256.61 117.23,-253.65 108.97,-250.69"/>
<polygon fill="#000000" fill-opacity="0.200000" stroke="#000000" stroke-width="2" stroke-opacity="0.200000" points="109.85,-248.78 103.49,-248.69 108.41,-252.72 109.85,-248.78"/>
</g>
<!-- public/src/core/app.js&#45;&gt;public/src/ui/navigation.js -->
<g id="edge12" class="edge">
<title>public/src/core/app.js&#45;&gt;public/src/ui/navigation.js</title>
<path fill="none" stroke="#000000" stroke-width="2" stroke-opacity="0.200000" d="M279.6,-381.51C269.1,-378.54 258.59,-373.06 254.19,-362.95 247.72,-348.08 247.72,-231.83 254.19,-216.95 259.96,-203.69 271.6,-192.68 282.49,-184.66"/>
<polygon fill="#000000" fill-opacity="0.200000" stroke="#000000" stroke-width="2" stroke-opacity="0.200000" points="283.59,-186.45 287.34,-181.31 281.21,-183 283.59,-186.45"/>
</g>
<!-- public/src/events/event&#45;handlers.js&#45;&gt;public/src/core/state.js -->
<g id="edge17" class="edge">
<title>public/src/events/event&#45;handlers.js&#45;&gt;public/src/core/state.js</title>
<path fill="none" stroke="#000000" stroke-width="2" stroke-opacity="0.200000" d="M75.82,-228.59C74.97,-197.39 76.91,-96.41 134.5,-51.95 214.3,9.65 286.33,21.5 361.25,-45.95 384.02,-66.45 392.63,-284.96 394.72,-350.48"/>
<polygon fill="#000000" fill-opacity="0.200000" stroke="#000000" stroke-width="2" stroke-opacity="0.200000" points="392.61,-350.36 394.89,-356.29 396.81,-350.23 392.61,-350.36"/>
</g>
<!-- public/src/events/event&#45;handlers.js&#45;&gt;public/src/api/message&#45;processor.js -->
<g id="edge15" class="edge">
<title>public/src/events/event&#45;handlers.js&#45;&gt;public/src/api/message&#45;processor.js</title>
<path fill="none" stroke="#000000" stroke-width="2" stroke-opacity="0.200000" d="M92.15,-247.4C103.68,-255.16 118.59,-267.25 126.5,-281.95 139.03,-305.26 126.04,-315.88 134.5,-340.95 145.81,-374.44 168.09,-409.37 181.98,-429.31"/>
<polygon fill="#000000" fill-opacity="0.200000" stroke="#000000" stroke-width="2" stroke-opacity="0.200000" points="180.09,-430.27 185.27,-433.95 183.51,-427.84 180.09,-430.27"/>
</g>
<!-- public/src/events/event&#45;handlers.js&#45;&gt;public/src/core/config.js -->
<g id="edge16" class="edge">
<title>public/src/events/event&#45;handlers.js&#45;&gt;public/src/core/config.js</title>
<path fill="none" stroke="#000000" stroke-width="2" stroke-opacity="0.200000" d="M118.86,-244.65C124.13,-245.44 129.44,-246.23 134.5,-246.95 159.63,-250.56 229.35,-244.46 247.75,-261.95 270.67,-283.75 241.47,-306.78 260.62,-331.95 263.61,-335.87 267.47,-339.13 271.68,-341.83"/>
<polygon fill="#000000" fill-opacity="0.200000" stroke="#000000" stroke-width="2" stroke-opacity="0.200000" points="270.6,-343.63 276.87,-344.66 272.61,-339.94 270.6,-343.63"/>
</g>
<!-- public/src/events/event&#45;handlers.js&#45;&gt;public/src/file&#45;system/diff&#45;viewer.js -->
<g id="edge18" class="edge">
<title>public/src/events/event&#45;handlers.js&#45;&gt;public/src/file&#45;system/diff&#45;viewer.js</title>
<path fill="none" stroke="#000000" stroke-width="2" stroke-opacity="0.200000" d="M75.25,-247.45C75.25,-259.56 75.25,-271.67 75.25,-283.77"/>
<polygon fill="#000000" fill-opacity="0.200000" stroke="#000000" stroke-width="2" stroke-opacity="0.200000" points="73.15,-283.56 75.25,-289.56 77.35,-283.56 73.15,-283.56"/>
</g>
<!-- public/src/events/event&#45;handlers.js&#45;&gt;public/src/file&#45;system/file&#45;manager.js -->
<g id="edge19" class="edge">
<title>public/src/events/event&#45;handlers.js&#45;&gt;public/src/file&#45;system/file&#45;manager.js</title>
<path fill="none" stroke="#000000" stroke-width="2" stroke-opacity="0.200000" d="M93.81,-247.66C105.36,-254.03 120.81,-262.52 134.5,-269.95 145.61,-275.98 157.91,-282.6 168.44,-288.24"/>
<polygon fill="#000000" fill-opacity="0.200000" stroke="#000000" stroke-width="2" stroke-opacity="0.200000" points="167.15,-289.93 173.43,-290.91 169.13,-286.23 167.15,-289.93"/>
</g>
<!-- public/src/events/event&#45;handlers.js&#45;&gt;public/src/ui/navigation.js -->
<g id="edge23" class="edge">
<title>public/src/events/event&#45;handlers.js&#45;&gt;public/src/ui/navigation.js</title>
<path fill="none" stroke="#000000" stroke-width="2" stroke-opacity="0.200000" d="M77.76,-228.35C81.94,-205.39 96.02,-147.51 134.5,-123.95 155.97,-110.82 223.98,-115.7 247.75,-123.95 264.89,-129.9 280.79,-143.22 291.64,-154"/>
<polygon fill="#000000" fill-opacity="0.200000" stroke="#000000" stroke-width="2" stroke-opacity="0.200000" points="289.93,-155.26 295.6,-158.12 292.95,-152.34 289.93,-155.26"/>
</g>
<!-- public/src/prompts/prompt&#45;ui.js -->
<g id="node12" class="node">
<title>public/src/prompts/prompt&#45;ui.js</title>
<g id="a_node12"><a xlink:href="public/src/prompts/prompt-ui.js" xlink:title="prompt&#45;ui.js">
<path fill="#ffffcc" stroke="black" d="M220.96,-81.2C220.96,-81.2 169.29,-81.2 169.29,-81.2 166.21,-81.2 163.12,-78.12 163.12,-75.04 163.12,-75.04 163.12,-68.87 163.12,-68.87 163.12,-65.79 166.21,-62.7 169.29,-62.7 169.29,-62.7 220.96,-62.7 220.96,-62.7 224.04,-62.7 227.12,-65.79 227.12,-68.87 227.12,-68.87 227.12,-75.04 227.12,-75.04 227.12,-78.12 224.04,-81.2 220.96,-81.2"/>
<text xml:space="preserve" text-anchor="start" x="171.12" y="-68.65" font-family="Helvetica,sans-Serif" font-size="9.00">prompt&#45;ui.js</text>
</a>
</g>
</g>
<!-- public/src/events/event&#45;handlers.js&#45;&gt;public/src/prompts/prompt&#45;ui.js -->
<g id="edge20" class="edge">
<title>public/src/events/event&#45;handlers.js&#45;&gt;public/src/prompts/prompt&#45;ui.js</title>
<path fill="none" stroke="#000000" stroke-width="2" stroke-opacity="0.200000" d="M78.86,-228.21C85.23,-205.8 103.42,-149.69 134.5,-112.95 143.6,-102.2 156.17,-93 167.42,-86.06"/>
<polygon fill="#000000" fill-opacity="0.200000" stroke="#000000" stroke-width="2" stroke-opacity="0.200000" points="168.23,-88.02 172.33,-83.16 166.1,-84.4 168.23,-88.02"/>
</g>
<!-- public/src/events/event&#45;handlers.js&#45;&gt;public/src/ui/file&#45;view.js -->
<g id="edge21" class="edge">
<title>public/src/events/event&#45;handlers.js&#45;&gt;public/src/ui/file&#45;view.js</title>
<path fill="none" stroke="#000000" stroke-width="2" stroke-opacity="0.200000" d="M86.27,-228.4C97.34,-218.26 116.07,-202.29 134.5,-191.95 141.64,-187.95 149.65,-184.42 157.42,-181.43"/>
<polygon fill="#000000" fill-opacity="0.200000" stroke="#000000" stroke-width="2" stroke-opacity="0.200000" points="157.96,-183.47 162.87,-179.43 156.51,-179.52 157.96,-183.47"/>
</g>
<!-- public/src/ui/modals.js -->
<g id="node14" class="node">
<title>public/src/ui/modals.js</title>
<g id="a_node14"><a xlink:href="public/src/ui/modals.js" xlink:title="modals.js">
<path fill="#ffffcc" stroke="black" d="M216.46,-148.2C216.46,-148.2 173.79,-148.2 173.79,-148.2 170.71,-148.2 167.62,-145.12 167.62,-142.04 167.62,-142.04 167.62,-135.87 167.62,-135.87 167.62,-132.79 170.71,-129.7 173.79,-129.7 173.79,-129.7 216.46,-129.7 216.46,-129.7 219.54,-129.7 222.62,-132.79 222.62,-135.87 222.62,-135.87 222.62,-142.04 222.62,-142.04 222.62,-145.12 219.54,-148.2 216.46,-148.2"/>
<text xml:space="preserve" text-anchor="start" x="175.62" y="-135.65" font-family="Helvetica,sans-Serif" font-size="9.00">modals.js</text>
</a>
</g>
</g>
<!-- public/src/events/event&#45;handlers.js&#45;&gt;public/src/ui/modals.js -->
<g id="edge22" class="edge">
<title>public/src/events/event&#45;handlers.js&#45;&gt;public/src/ui/modals.js</title>
<path fill="none" stroke="#000000" stroke-width="2" stroke-opacity="0.200000" d="M80.28,-228.35C88.08,-210.94 106.95,-174.23 134.5,-154.95 141.6,-149.98 150.17,-146.56 158.57,-144.19"/>
<polygon fill="#000000" fill-opacity="0.200000" stroke="#000000" stroke-width="2" stroke-opacity="0.200000" points="158.92,-146.27 164.25,-142.81 157.92,-142.19 158.92,-146.27"/>
</g>
<!-- public/src/events/event&#45;handlers.js&#45;&gt;public/src/utils/helpers.js -->
<g id="edge24" class="edge">
<title>public/src/events/event&#45;handlers.js&#45;&gt;public/src/utils/helpers.js</title>
<path fill="none" stroke="#000000" stroke-width="2" stroke-opacity="0.200000" d="M118.75,-238.34C153.59,-239.15 204.09,-241.49 247.75,-247.95 255.07,-249.04 262.82,-250.6 270.2,-252.29"/>
<polygon fill="#000000" fill-opacity="0.200000" stroke="#000000" stroke-width="2" stroke-opacity="0.200000" points="269.37,-254.25 275.7,-253.61 270.35,-250.17 269.37,-254.25"/>
</g>
<!-- public/src/ui/navigation.js&#45;&gt;public/src/api/client.js -->
<g id="edge47" class="edge">
<title>public/src/ui/navigation.js&#45;&gt;public/src/api/client.js</title>
<path fill="none" stroke="#000000" stroke-width="2" stroke-opacity="0.200000" d="M289.83,-179.59C277.29,-187.72 261.29,-200.63 254.19,-216.95 249.69,-227.3 249.69,-409.61 254.19,-419.95 257.51,-427.59 264.07,-433 271.47,-436.83"/>
<polygon fill="#000000" fill-opacity="0.200000" stroke="#000000" stroke-width="2" stroke-opacity="0.200000" points="270.6,-438.74 276.94,-439.19 272.26,-434.88 270.6,-438.74"/>
</g>
<!-- public/src/ui/navigation.js&#45;&gt;public/src/core/state.js -->
<g id="edge49" class="edge">
<title>public/src/ui/navigation.js&#45;&gt;public/src/core/state.js</title>
<path fill="none" stroke="#000000" stroke-width="2" stroke-opacity="0.200000" d="M326.55,-179.69C338.28,-186.8 352.78,-197.54 361.25,-210.95 389.37,-255.48 394.53,-319.64 395.29,-350.72"/>
<polygon fill="#000000" fill-opacity="0.200000" stroke="#000000" stroke-width="2" stroke-opacity="0.200000" points="393.18,-350.58 395.36,-356.55 397.38,-350.52 393.18,-350.58"/>
</g>
<!-- public/src/ui/navigation.js&#45;&gt;public/src/core/config.js -->
<g id="edge48" class="edge">
<title>public/src/ui/navigation.js&#45;&gt;public/src/core/config.js</title>
<path fill="none" stroke="#000000" stroke-width="2" stroke-opacity="0.200000" d="M289.83,-179.59C277.29,-187.72 261.29,-200.63 254.19,-216.95 249.36,-228.06 249.36,-314.85 254.19,-325.95 257.6,-333.8 264.3,-339.5 271.81,-343.62"/>
<polygon fill="#000000" fill-opacity="0.200000" stroke="#000000" stroke-width="2" stroke-opacity="0.200000" points="270.44,-345.3 276.76,-345.95 272.23,-341.5 270.44,-345.3"/>
</g>
<!-- public/src/prompts/prompt&#45;manager.js&#45;&gt;public/src/core/state.js -->
<g id="edge36" class="edge">
<title>public/src/prompts/prompt&#45;manager.js&#45;&gt;public/src/core/state.js</title>
<g id="a_edge36"><a xlink:title="no&#45;circular">
<path fill="none" stroke="orange" stroke-width="2" d="M331.75,-81.61C342.53,-89.14 354.38,-100.13 361.25,-112.95 381.91,-151.56 391.04,-282.38 394.05,-340.67"/>
<polygon fill="orange" stroke="orange" stroke-width="2" points="392.4,-350.47 394.78,-356.36 396.6,-350.27 392.4,-350.47"/>
<polyline fill="none" stroke="orange" stroke-width="2" points="394.45,-349.37 394.31,-346.37"/>
<ellipse fill="none" stroke="orange" stroke-width="2" cx="394.15" cy="-342.98" rx="2.4" ry="2.4"/>
</a>
</g>
<text xml:space="preserve" text-anchor="middle" x="405.84" y="-209.31" font-family="Helvetica,sans-Serif" font-size="9.00" fill="orange">no&#45;circular</text>
</g>
<!-- public/src/prompts/prompt&#45;ui.js&#45;&gt;public/src/core/state.js -->
<g id="edge38" class="edge">
<title>public/src/prompts/prompt&#45;ui.js&#45;&gt;public/src/core/state.js</title>
<path fill="none" stroke="#000000" stroke-width="2" stroke-opacity="0.200000" d="M227.46,-63.86C269.8,-53.78 342.18,-39.85 361.25,-56.95 383.2,-76.64 392.34,-286.03 394.64,-350.3"/>
<polygon fill="#000000" fill-opacity="0.200000" stroke="#000000" stroke-width="2" stroke-opacity="0.200000" points="392.54,-350.37 394.84,-356.29 396.74,-350.22 392.54,-350.37"/>
</g>
<!-- public/src/prompts/prompt&#45;ui.js&#45;&gt;public/src/core/config.js -->
<g id="edge37" class="edge">
<title>public/src/prompts/prompt&#45;ui.js&#45;&gt;public/src/core/config.js</title>
<path fill="none" stroke="#000000" stroke-width="2" stroke-opacity="0.200000" d="M212.3,-81.69C224.39,-89.95 240.11,-102.99 247.75,-118.95 268.22,-161.73 234.25,-292.55 260.62,-331.95 263.5,-336.24 267.45,-339.72 271.83,-342.54"/>
<polygon fill="#000000" fill-opacity="0.200000" stroke="#000000" stroke-width="2" stroke-opacity="0.200000" points="270.57,-344.24 276.85,-345.24 272.56,-340.54 270.57,-344.24"/>
</g>
<!-- public/src/prompts/prompt&#45;ui.js&#45;&gt;public/src/prompts/prompt&#45;manager.js -->
<g id="edge40" class="edge">
<title>public/src/prompts/prompt&#45;ui.js&#45;&gt;public/src/prompts/prompt&#45;manager.js</title>
<path fill="none" stroke="#000000" stroke-width="2" stroke-opacity="0.200000" d="M227.61,-71.95C235.16,-71.95 243.43,-71.95 251.68,-71.95"/>
<polygon fill="#000000" fill-opacity="0.200000" stroke="#000000" stroke-width="2" stroke-opacity="0.200000" points="251.56,-74.05 257.56,-71.95 251.56,-69.85 251.56,-74.05"/>
</g>
<!-- public/src/prompts/prompt&#45;ui.js&#45;&gt;public/src/utils/dom&#45;helpers.js -->
<g id="edge39" class="edge">
<title>public/src/prompts/prompt&#45;ui.js&#45;&gt;public/src/utils/dom&#45;helpers.js</title>
<path fill="none" stroke="#000000" stroke-width="2" stroke-opacity="0.200000" d="M211.45,-81.53C223.41,-89.87 239.35,-103.1 247.75,-118.95 266.67,-154.66 236.8,-176.32 260.62,-208.95 262.77,-211.9 265.42,-214.46 268.35,-216.7"/>
<polygon fill="#000000" fill-opacity="0.200000" stroke="#000000" stroke-width="2" stroke-opacity="0.200000" points="266.87,-218.24 273.05,-219.71 269.13,-214.7 266.87,-218.24"/>
</g>
<!-- public/src/ui/file&#45;view.js&#45;&gt;public/src/core/state.js -->
<g id="edge42" class="edge">
<title>public/src/ui/file&#45;view.js&#45;&gt;public/src/core/state.js</title>
<path fill="none" stroke="#000000" stroke-width="2" stroke-opacity="0.200000" d="M224.55,-162.65C266.27,-152.7 341.33,-137.95 361.25,-154.95 390.7,-180.09 394.77,-303.18 395.24,-350.43"/>
<polygon fill="#000000" fill-opacity="0.200000" stroke="#000000" stroke-width="2" stroke-opacity="0.200000" points="393.14,-350.29 395.27,-356.28 397.34,-350.26 393.14,-350.29"/>
</g>
<!-- public/src/ui/file&#45;view.js&#45;&gt;public/src/core/config.js -->
<g id="edge41" class="edge">
<title>public/src/ui/file&#45;view.js&#45;&gt;public/src/core/config.js</title>
<path fill="none" stroke="#000000" stroke-width="2" stroke-opacity="0.200000" d="M204.29,-179.29C215.98,-193.2 237.22,-220.68 247.75,-247.95 261.35,-283.19 238.2,-301.56 260.62,-331.95 263.69,-336.11 267.75,-339.51 272.18,-342.3"/>
<polygon fill="#000000" fill-opacity="0.200000" stroke="#000000" stroke-width="2" stroke-opacity="0.200000" points="270.93,-344.01 277.21,-344.99 272.91,-340.31 270.93,-344.01"/>
</g>
<!-- public/src/ui/file&#45;view.js&#45;&gt;public/src/utils/markdown.js -->
<g id="edge44" class="edge">
<title>public/src/ui/file&#45;view.js&#45;&gt;public/src/utils/markdown.js</title>
<path fill="none" stroke="#000000" stroke-width="2" stroke-opacity="0.200000" d="M203.01,-179.24C213.45,-193.55 233.55,-222.03 247.75,-247.95 254.53,-260.32 250.27,-267.38 260.62,-276.95 262.07,-278.29 263.63,-279.51 265.28,-280.64"/>
<polygon fill="#000000" fill-opacity="0.200000" stroke="#000000" stroke-width="2" stroke-opacity="0.200000" points="264.04,-282.35 270.3,-283.46 266.1,-278.69 264.04,-282.35"/>
</g>
<!-- public/src/ui/file&#45;view.js&#45;&gt;public/src/ui/navigation.js -->
<g id="edge45" class="edge">
<title>public/src/ui/file&#45;view.js&#45;&gt;public/src/ui/navigation.js</title>
<path fill="none" stroke="#000000" stroke-width="2" stroke-opacity="0.200000" d="M224.42,-169.95C236.41,-169.95 250.62,-169.95 263.81,-169.95"/>
<polygon fill="#000000" fill-opacity="0.200000" stroke="#000000" stroke-width="2" stroke-opacity="0.200000" points="263.7,-172.05 269.7,-169.95 263.7,-167.85 263.7,-172.05"/>
</g>
<!-- public/src/ui/file&#45;view.js&#45;&gt;public/src/utils/dom&#45;helpers.js -->
<g id="edge43" class="edge">
<title>public/src/ui/file&#45;view.js&#45;&gt;public/src/utils/dom&#45;helpers.js</title>
<path fill="none" stroke="#000000" stroke-width="2" stroke-opacity="0.200000" d="M211.27,-179.66C224.2,-187.8 243.38,-199.58 260.62,-208.95 265.9,-211.82 271.6,-214.72 277.12,-217.45"/>
<polygon fill="#000000" fill-opacity="0.200000" stroke="#000000" stroke-width="2" stroke-opacity="0.200000" points="275.98,-219.23 282.29,-219.95 277.81,-215.45 275.98,-219.23"/>
</g>
<!-- public/src/ui/modals.js&#45;&gt;public/src/ui/navigation.js -->
<g id="edge46" class="edge">
<title>public/src/ui/modals.js&#45;&gt;public/src/ui/navigation.js</title>
<path fill="none" stroke="#000000" stroke-width="2" stroke-opacity="0.200000" d="M223,-146.54C235.42,-150.04 250.45,-154.28 264.29,-158.19"/>
<polygon fill="#000000" fill-opacity="0.200000" stroke="#000000" stroke-width="2" stroke-opacity="0.200000" points="263.46,-160.13 269.81,-159.74 264.6,-156.09 263.46,-160.13"/>
</g>
</g>
</svg>
