<?xml version="1.0" encoding="UTF-8" standalone="no"?>
<!DOCTYPE svg PUBLIC "-//W3C//DTD SVG 1.1//EN"
 "http://www.w3.org/Graphics/SVG/1.1/DTD/svg11.dtd">
<!-- Generated by graphviz version 13.1.1 (0)
 -->
<!-- Title: dependency&#45;cruiser output Pages: 1 -->
<svg width="537pt" height="495pt"
 viewBox="0.00 0.00 537.00 495.00" xmlns="http://www.w3.org/2000/svg" xmlns:xlink="http://www.w3.org/1999/xlink">
<g id="graph0" class="graph" transform="scale(1 1) rotate(0) translate(4 491.42)">
<title>dependency&#45;cruiser output</title>
<polygon fill="white" stroke="none" points="-4,4 -4,-491.42 532.75,-491.42 532.75,4 -4,4"/>
<g id="clust1" class="cluster">
<title>cluster_public</title>
<path fill="#ffffff" stroke="black" stroke-width="2" d="M20,-22.42C20,-22.42 508.75,-22.42 508.75,-22.42 514.75,-22.42 520.75,-28.42 520.75,-34.42 520.75,-34.42 520.75,-467.42 520.75,-467.42 520.75,-473.42 514.75,-479.42 508.75,-479.42 508.75,-479.42 20,-479.42 20,-479.42 14,-479.42 8,-473.42 8,-467.42 8,-467.42 8,-34.42 8,-34.42 8,-28.42 14,-22.42 20,-22.42"/>
<text xml:space="preserve" text-anchor="middle" x="264.38" y="-466.87" font-family="Helvetica,sans-Serif" font-weight="bold" font-size="9.00">public</text>
</g>
<g id="clust2" class="cluster">
<title>cluster_public/src</title>
<path fill="#ffffff" stroke="black" stroke-width="2" d="M28,-30.42C28,-30.42 500.75,-30.42 500.75,-30.42 506.75,-30.42 512.75,-36.42 512.75,-42.42 512.75,-42.42 512.75,-440.42 512.75,-440.42 512.75,-446.42 506.75,-452.42 500.75,-452.42 500.75,-452.42 28,-452.42 28,-452.42 22,-452.42 16,-446.42 16,-440.42 16,-440.42 16,-42.42 16,-42.42 16,-36.42 22,-30.42 28,-30.42"/>
<text xml:space="preserve" text-anchor="middle" x="264.38" y="-439.87" font-family="Helvetica,sans-Serif" font-weight="bold" font-size="9.00">src</text>
</g>
<g id="clust3" class="cluster">
<title>cluster_public/src/api</title>
<path fill="#ffffff" stroke="black" stroke-width="2" d="M153.25,-370.42C153.25,-370.42 347.62,-370.42 347.62,-370.42 353.62,-370.42 359.62,-376.42 359.62,-382.42 359.62,-382.42 359.62,-413.42 359.62,-413.42 359.62,-419.42 353.62,-425.42 347.62,-425.42 347.62,-425.42 153.25,-425.42 153.25,-425.42 147.25,-425.42 141.25,-419.42 141.25,-413.42 141.25,-413.42 141.25,-382.42 141.25,-382.42 141.25,-376.42 147.25,-370.42 153.25,-370.42"/>
<text xml:space="preserve" text-anchor="middle" x="250.44" y="-412.87" font-family="Helvetica,sans-Serif" font-weight="bold" font-size="9.00">api</text>
</g>
<g id="clust4" class="cluster">
<title>cluster_public/src/core</title>
<path fill="#ffffff" stroke="black" stroke-width="2" d="M181.88,-193.42C181.88,-193.42 347.75,-193.42 347.75,-193.42 353.75,-193.42 359.75,-199.42 359.75,-205.42 359.75,-205.42 359.75,-267.42 359.75,-267.42 359.75,-273.42 353.75,-279.42 347.75,-279.42 347.75,-279.42 181.88,-279.42 181.88,-279.42 175.88,-279.42 169.88,-273.42 169.88,-267.42 169.88,-267.42 169.88,-205.42 169.88,-205.42 169.88,-199.42 175.88,-193.42 181.88,-193.42"/>
<text xml:space="preserve" text-anchor="middle" x="264.81" y="-266.87" font-family="Helvetica,sans-Serif" font-weight="bold" font-size="9.00">core</text>
</g>
<g id="clust5" class="cluster">
<title>cluster_public/src/events</title>
<path fill="#ffffff" stroke="black" stroke-width="2" d="M36,-180.42C36,-180.42 121.25,-180.42 121.25,-180.42 127.25,-180.42 133.25,-186.42 133.25,-192.42 133.25,-192.42 133.25,-223.42 133.25,-223.42 133.25,-229.42 127.25,-235.42 121.25,-235.42 121.25,-235.42 36,-235.42 36,-235.42 30,-235.42 24,-229.42 24,-223.42 24,-223.42 24,-192.42 24,-192.42 24,-186.42 30,-180.42 36,-180.42"/>
<text xml:space="preserve" text-anchor="middle" x="78.62" y="-222.87" font-family="Helvetica,sans-Serif" font-weight="bold" font-size="9.00">events</text>
</g>
<g id="clust6" class="cluster">
<title>cluster_public/src/file&#45;system</title>
<path fill="#ffffff" stroke="black" stroke-width="2" d="M175,-307.42C175,-307.42 361.62,-307.42 361.62,-307.42 367.62,-307.42 373.62,-313.42 373.62,-319.42 373.62,-319.42 373.62,-350.42 373.62,-350.42 373.62,-356.42 367.62,-362.42 361.62,-362.42 361.62,-362.42 175,-362.42 175,-362.42 169,-362.42 163,-356.42 163,-350.42 163,-350.42 163,-319.42 163,-319.42 163,-313.42 169,-307.42 175,-307.42"/>
<text xml:space="preserve" text-anchor="middle" x="268.31" y="-349.87" font-family="Helvetica,sans-Serif" font-weight="bold" font-size="9.00">file&#45;system</text>
</g>
<g id="clust7" class="cluster">
<title>cluster_public/src/migration</title>
<path fill="#ffffff" stroke="black" stroke-width="2" d="M39,-310.42C39,-310.42 118.25,-310.42 118.25,-310.42 124.25,-310.42 130.25,-316.42 130.25,-322.42 130.25,-322.42 130.25,-353.42 130.25,-353.42 130.25,-359.42 124.25,-365.42 118.25,-365.42 118.25,-365.42 39,-365.42 39,-365.42 33,-365.42 27,-359.42 27,-353.42 27,-353.42 27,-322.42 27,-322.42 27,-316.42 33,-310.42 39,-310.42"/>
<text xml:space="preserve" text-anchor="middle" x="78.62" y="-352.87" font-family="Helvetica,sans-Serif" font-weight="bold" font-size="9.00">migration</text>
</g>
<g id="clust8" class="cluster">
<title>cluster_public/src/prompts</title>
<path fill="#ffffff" stroke="black" stroke-width="2" d="M173.5,-58.42C173.5,-58.42 371.75,-58.42 371.75,-58.42 377.75,-58.42 383.75,-64.42 383.75,-70.42 383.75,-70.42 383.75,-101.42 383.75,-101.42 383.75,-107.42 377.75,-113.42 371.75,-113.42 371.75,-113.42 173.5,-113.42 173.5,-113.42 167.5,-113.42 161.5,-107.42 161.5,-101.42 161.5,-101.42 161.5,-70.42 161.5,-70.42 161.5,-64.42 167.5,-58.42 173.5,-58.42"/>
<text xml:space="preserve" text-anchor="middle" x="272.62" y="-100.87" font-family="Helvetica,sans-Serif" font-weight="bold" font-size="9.00">prompts</text>
</g>
<g id="clust9" class="cluster">
<title>cluster_public/src/storage</title>
<path fill="#ffffff" stroke="black" stroke-width="2" d="M403.75,-176.42C403.75,-176.42 492.75,-176.42 492.75,-176.42 498.75,-176.42 504.75,-182.42 504.75,-188.42 504.75,-188.42 504.75,-219.42 504.75,-219.42 504.75,-225.42 498.75,-231.42 492.75,-231.42 492.75,-231.42 403.75,-231.42 403.75,-231.42 397.75,-231.42 391.75,-225.42 391.75,-219.42 391.75,-219.42 391.75,-188.42 391.75,-188.42 391.75,-182.42 397.75,-176.42 403.75,-176.42"/>
<text xml:space="preserve" text-anchor="middle" x="448.25" y="-218.87" font-family="Helvetica,sans-Serif" font-weight="bold" font-size="9.00">storage</text>
</g>
<g id="clust10" class="cluster">
<title>cluster_public/src/ui</title>
<path fill="#ffffff" stroke="black" stroke-width="2" d="M179.88,-127.42C179.88,-127.42 357.12,-127.42 357.12,-127.42 363.12,-127.42 369.12,-133.42 369.12,-139.42 369.12,-139.42 369.12,-170.42 369.12,-170.42 369.12,-176.42 363.12,-182.42 357.12,-182.42 357.12,-182.42 179.88,-182.42 179.88,-182.42 173.88,-182.42 167.88,-176.42 167.88,-170.42 167.88,-170.42 167.88,-139.42 167.88,-139.42 167.88,-133.42 173.88,-127.42 179.88,-127.42"/>
<text xml:space="preserve" text-anchor="middle" x="268.5" y="-169.87" font-family="Helvetica,sans-Serif" font-weight="bold" font-size="9.00">ui</text>
</g>
<g id="clust11" class="cluster">
<title>cluster_public/src/utils</title>
<path fill="#ffffff" stroke="black" stroke-width="2" d="M411.25,-239.42C411.25,-239.42 485.25,-239.42 485.25,-239.42 491.25,-239.42 497.25,-245.42 497.25,-251.42 497.25,-251.42 497.25,-344.42 497.25,-344.42 497.25,-350.42 491.25,-356.42 485.25,-356.42 485.25,-356.42 411.25,-356.42 411.25,-356.42 405.25,-356.42 399.25,-350.42 399.25,-344.42 399.25,-344.42 399.25,-251.42 399.25,-251.42 399.25,-245.42 405.25,-239.42 411.25,-239.42"/>
<text xml:space="preserve" text-anchor="middle" x="448.25" y="-343.87" font-family="Helvetica,sans-Serif" font-weight="bold" font-size="9.00">utils</text>
</g>
<!-- public/src/api/client.js -->
<g id="node1" class="node">
<title>public/src/api/client.js</title>
<g id="a_node1"><a xlink:href="public/src/api/client.js" xlink:title="client.js">
<path fill="#ffffcc" stroke="black" d="M345.21,-398.05C345.21,-398.05 304.04,-398.05 304.04,-398.05 300.83,-398.05 297.62,-394.84 297.62,-391.63 297.62,-391.63 297.62,-385.21 297.62,-385.21 297.62,-382.01 300.83,-378.8 304.04,-378.8 304.04,-378.8 345.21,-378.8 345.21,-378.8 348.42,-378.8 351.62,-382.01 351.62,-385.21 351.62,-385.21 351.62,-391.63 351.62,-391.63 351.62,-394.84 348.42,-398.05 345.21,-398.05"/>
<text xml:space="preserve" text-anchor="start" x="307.38" y="-385.5" font-family="Helvetica,sans-Serif" font-size="9.00">client.js</text>
</a>
</g>
</g>
<!-- public/src/core/state.js -->
<g id="node2" class="node">
<title>public/src/core/state.js</title>
<g id="a_node2"><a xlink:href="public/src/core/state.js" xlink:title="state.js">
<path fill="#ffffcc" stroke="black" d="M345.21,-252.05C345.21,-252.05 304.04,-252.05 304.04,-252.05 300.83,-252.05 297.62,-248.84 297.62,-245.63 297.62,-245.63 297.62,-239.21 297.62,-239.21 297.62,-236.01 300.83,-232.8 304.04,-232.8 304.04,-232.8 345.21,-232.8 345.21,-232.8 348.42,-232.8 351.62,-236.01 351.62,-239.21 351.62,-239.21 351.62,-245.63 351.62,-245.63 351.62,-248.84 348.42,-252.05 345.21,-252.05"/>
<text xml:space="preserve" text-anchor="start" x="308.5" y="-239.5" font-family="Helvetica,sans-Serif" font-size="9.00">state.js</text>
</a>
</g>
</g>
<!-- public/src/api/client.js&#45;&gt;public/src/core/state.js -->
<g id="edge1" class="edge">
<title>public/src/api/client.js&#45;&gt;public/src/core/state.js</title>
<path fill="none" stroke="#000000" stroke-width="2" stroke-opacity="0.200000" d="M297.37,-382.88C285.17,-378.76 272.35,-371.63 267,-359.42 258.27,-339.47 259.5,-330.87 267,-310.42 274.62,-289.64 291.72,-270.85 305.33,-258.31"/>
<polygon fill="#000000" fill-opacity="0.200000" stroke="#000000" stroke-width="2" stroke-opacity="0.200000" points="306.69,-259.91 309.79,-254.36 303.9,-256.77 306.69,-259.91"/>
</g>
<!-- public/src/prompts/prompt&#45;manager.js -->
<g id="node12" class="node">
<title>public/src/prompts/prompt&#45;manager.js</title>
<g id="a_node12"><a xlink:href="public/src/prompts/prompt-manager.js" xlink:title="prompt&#45;manager.js">
<path fill="#ffffcc" stroke="black" d="M369.33,-86.05C369.33,-86.05 279.92,-86.05 279.92,-86.05 276.71,-86.05 273.5,-82.84 273.5,-79.63 273.5,-79.63 273.5,-73.21 273.5,-73.21 273.5,-70.01 276.71,-66.8 279.92,-66.8 279.92,-66.8 369.33,-66.8 369.33,-66.8 372.54,-66.8 375.75,-70.01 375.75,-73.21 375.75,-73.21 375.75,-79.63 375.75,-79.63 375.75,-82.84 372.54,-86.05 369.33,-86.05"/>
<text xml:space="preserve" text-anchor="start" x="281.5" y="-73.5" font-family="Helvetica,sans-Serif" font-size="9.00">prompt&#45;manager.js</text>
</a>
</g>
</g>
<!-- public/src/core/state.js&#45;&gt;public/src/prompts/prompt&#45;manager.js -->
<g id="edge16" class="edge">
<title>public/src/core/state.js&#45;&gt;public/src/prompts/prompt&#45;manager.js</title>
<g id="a_edge16"><a xlink:title="no&#45;circular">
<path fill="none" stroke="orange" stroke-width="2" d="M297.15,-240.79C284.89,-238.38 272.08,-233.03 267,-221.42 258.89,-202.9 258.96,-148.98 267,-130.42 272.57,-117.57 282.86,-106.38 293.23,-97.57"/>
<polygon fill="orange" stroke="orange" stroke-width="2" points="301.99,-93.57 305.51,-88.28 299.46,-90.22 301.99,-93.57"/>
<polyline fill="none" stroke="orange" stroke-width="2" points="299.93,-92.5 297.54,-94.31"/>
<ellipse fill="none" stroke="orange" stroke-width="2" cx="294.83" cy="-96.36" rx="2.4" ry="2.4"/>
</a>
</g>
<text xml:space="preserve" text-anchor="middle" x="237.05" y="-163.54" font-family="Helvetica,sans-Serif" font-size="9.00" fill="orange">no&#45;circular</text>
</g>
<!-- public/src/api/message&#45;processor.js -->
<g id="node3" class="node">
<title>public/src/api/message&#45;processor.js</title>
<g id="a_node3"><a xlink:href="public/src/api/message-processor.js" xlink:title="message&#45;processor.js">
<path fill="#ffffcc" stroke="black" d="M254.08,-398.05C254.08,-398.05 155.67,-398.05 155.67,-398.05 152.46,-398.05 149.25,-394.84 149.25,-391.63 149.25,-391.63 149.25,-385.21 149.25,-385.21 149.25,-382.01 152.46,-378.8 155.67,-378.8 155.67,-378.8 254.08,-378.8 254.08,-378.8 257.29,-378.8 260.5,-382.01 260.5,-385.21 260.5,-385.21 260.5,-391.63 260.5,-391.63 260.5,-394.84 257.29,-398.05 254.08,-398.05"/>
<text xml:space="preserve" text-anchor="start" x="157.25" y="-385.5" font-family="Helvetica,sans-Serif" font-size="9.00">message&#45;processor.js</text>
</a>
</g>
</g>
<!-- public/src/api/message&#45;processor.js&#45;&gt;public/src/api/client.js -->
<g id="edge7" class="edge">
<title>public/src/api/message&#45;processor.js&#45;&gt;public/src/api/client.js</title>
<path fill="none" stroke="#000000" stroke-width="2" stroke-opacity="0.200000" d="M260.96,-388.42C270.28,-388.42 279.72,-388.42 288.36,-388.42"/>
<polygon fill="#000000" fill-opacity="0.200000" stroke="#000000" stroke-width="2" stroke-opacity="0.200000" points="288.34,-390.52 294.34,-388.42 288.34,-386.32 288.34,-390.52"/>
</g>
<!-- public/src/api/message&#45;processor.js&#45;&gt;public/src/core/state.js -->
<g id="edge3" class="edge">
<title>public/src/api/message&#45;processor.js&#45;&gt;public/src/core/state.js</title>
<path fill="none" stroke="#000000" stroke-width="2" stroke-opacity="0.200000" d="M243.21,-378.43C249.74,-375.21 255.91,-370.97 260.5,-365.42 278.17,-344.06 261.57,-329.44 273.5,-304.42 281.77,-287.08 295.8,-270.33 306.92,-258.61"/>
<polygon fill="#000000" fill-opacity="0.200000" stroke="#000000" stroke-width="2" stroke-opacity="0.200000" points="308.25,-260.25 310.95,-254.5 305.25,-257.32 308.25,-260.25"/>
</g>
<!-- public/src/core/config.js -->
<g id="node4" class="node">
<title>public/src/core/config.js</title>
<g id="a_node4"><a xlink:href="public/src/core/config.js" xlink:title="config.js">
<path fill="#ffffcc" stroke="black" d="M345.33,-221.05C345.33,-221.05 303.92,-221.05 303.92,-221.05 300.71,-221.05 297.5,-217.84 297.5,-214.63 297.5,-214.63 297.5,-208.21 297.5,-208.21 297.5,-205.01 300.71,-201.8 303.92,-201.8 303.92,-201.8 345.33,-201.8 345.33,-201.8 348.54,-201.8 351.75,-205.01 351.75,-208.21 351.75,-208.21 351.75,-214.63 351.75,-214.63 351.75,-217.84 348.54,-221.05 345.33,-221.05"/>
<text xml:space="preserve" text-anchor="start" x="305.5" y="-208.5" font-family="Helvetica,sans-Serif" font-size="9.00">config.js</text>
</a>
</g>
</g>
<!-- public/src/api/message&#45;processor.js&#45;&gt;public/src/core/config.js -->
<g id="edge2" class="edge">
<title>public/src/api/message&#45;processor.js&#45;&gt;public/src/core/config.js</title>
<path fill="none" stroke="#000000" stroke-width="2" stroke-opacity="0.200000" d="M244.57,-378.41C250.74,-375.21 256.42,-370.98 260.5,-365.42 278.85,-340.4 253.83,-250.42 273.5,-226.42 277.41,-221.65 282.77,-218.36 288.53,-216.09"/>
<polygon fill="#000000" fill-opacity="0.200000" stroke="#000000" stroke-width="2" stroke-opacity="0.200000" points="289.13,-218.11 294.25,-214.34 287.9,-214.09 289.13,-218.11"/>
</g>
<!-- public/src/file&#45;system/file&#45;editor.js -->
<g id="node5" class="node">
<title>public/src/file&#45;system/file&#45;editor.js</title>
<g id="a_node5"><a xlink:href="public/src/file-system/file-editor.js" xlink:title="file&#45;editor.js">
<path fill="#ffffcc" stroke="black" d="M232.33,-335.05C232.33,-335.05 177.42,-335.05 177.42,-335.05 174.21,-335.05 171,-331.84 171,-328.63 171,-328.63 171,-322.21 171,-322.21 171,-319.01 174.21,-315.8 177.42,-315.8 177.42,-315.8 232.33,-315.8 232.33,-315.8 235.54,-315.8 238.75,-319.01 238.75,-322.21 238.75,-322.21 238.75,-328.63 238.75,-328.63 238.75,-331.84 235.54,-335.05 232.33,-335.05"/>
<text xml:space="preserve" text-anchor="start" x="179" y="-322.5" font-family="Helvetica,sans-Serif" font-size="9.00">file&#45;editor.js</text>
</a>
</g>
</g>
<!-- public/src/api/message&#45;processor.js&#45;&gt;public/src/file&#45;system/file&#45;editor.js -->
<g id="edge4" class="edge">
<title>public/src/api/message&#45;processor.js&#45;&gt;public/src/file&#45;system/file&#45;editor.js</title>
<path fill="none" stroke="#000000" stroke-width="2" stroke-opacity="0.200000" d="M204.88,-378.46C204.88,-366.98 204.88,-355.51 204.88,-344.04"/>
<polygon fill="#000000" fill-opacity="0.200000" stroke="#000000" stroke-width="2" stroke-opacity="0.200000" points="206.98,-344.29 204.88,-338.29 202.78,-344.29 206.98,-344.29"/>
</g>
<!-- public/src/file&#45;system/file&#45;manager.js -->
<g id="node6" class="node">
<title>public/src/file&#45;system/file&#45;manager.js</title>
<g id="a_node6"><a xlink:href="public/src/file-system/file-manager.js" xlink:title="file&#45;manager.js">
<path fill="#ffffcc" stroke="black" d="M359.21,-335.05C359.21,-335.05 290.04,-335.05 290.04,-335.05 286.83,-335.05 283.62,-331.84 283.62,-328.63 283.62,-328.63 283.62,-322.21 283.62,-322.21 283.62,-319.01 286.83,-315.8 290.04,-315.8 290.04,-315.8 359.21,-315.8 359.21,-315.8 362.42,-315.8 365.62,-319.01 365.62,-322.21 365.62,-322.21 365.62,-328.63 365.62,-328.63 365.62,-331.84 362.42,-335.05 359.21,-335.05"/>
<text xml:space="preserve" text-anchor="start" x="291.62" y="-322.5" font-family="Helvetica,sans-Serif" font-size="9.00">file&#45;manager.js</text>
</a>
</g>
</g>
<!-- public/src/api/message&#45;processor.js&#45;&gt;public/src/file&#45;system/file&#45;manager.js -->
<g id="edge5" class="edge">
<title>public/src/api/message&#45;processor.js&#45;&gt;public/src/file&#45;system/file&#45;manager.js</title>
<path fill="none" stroke="#000000" stroke-width="2" stroke-opacity="0.200000" d="M232.12,-378.41C241.26,-374.65 251.47,-370.14 260.5,-365.42 274.74,-357.98 289.98,-348.37 301.92,-340.44"/>
<polygon fill="#000000" fill-opacity="0.200000" stroke="#000000" stroke-width="2" stroke-opacity="0.200000" points="302.93,-342.29 306.73,-337.2 300.58,-338.81 302.93,-342.29"/>
</g>
<!-- public/src/utils/markdown.js -->
<g id="node7" class="node">
<title>public/src/utils/markdown.js</title>
<g id="a_node7"><a xlink:href="public/src/utils/markdown.js" xlink:title="markdown.js">
<path fill="#ffffcc" stroke="black" d="M478.71,-329.05C478.71,-329.05 417.79,-329.05 417.79,-329.05 414.58,-329.05 411.38,-325.84 411.38,-322.63 411.38,-322.63 411.38,-316.21 411.38,-316.21 411.38,-313.01 414.58,-309.8 417.79,-309.8 417.79,-309.8 478.71,-309.8 478.71,-309.8 481.92,-309.8 485.12,-313.01 485.12,-316.21 485.12,-316.21 485.12,-322.63 485.12,-322.63 485.12,-325.84 481.92,-329.05 478.71,-329.05"/>
<text xml:space="preserve" text-anchor="start" x="419.38" y="-316.5" font-family="Helvetica,sans-Serif" font-size="9.00">markdown.js</text>
</a>
</g>
</g>
<!-- public/src/api/message&#45;processor.js&#45;&gt;public/src/utils/markdown.js -->
<g id="edge6" class="edge">
<title>public/src/api/message&#45;processor.js&#45;&gt;public/src/utils/markdown.js</title>
<path fill="none" stroke="#000000" stroke-width="2" stroke-opacity="0.200000" d="M230.7,-398.53C266.56,-411.46 333.99,-429.36 383.75,-404.42 411.44,-390.55 430.14,-358.24 439.73,-337.69"/>
<polygon fill="#000000" fill-opacity="0.200000" stroke="#000000" stroke-width="2" stroke-opacity="0.200000" points="441.65,-338.54 442.15,-332.21 437.8,-336.84 441.65,-338.54"/>
</g>
<!-- public/src/storage/storage&#45;adapter.js -->
<g id="node11" class="node">
<title>public/src/storage/storage&#45;adapter.js</title>
<g id="a_node11"><a xlink:href="public/src/storage/storage-adapter.js" xlink:title="storage&#45;adapter.js">
<path fill="#ffffcc" stroke="black" d="M490.33,-204.05C490.33,-204.05 406.17,-204.05 406.17,-204.05 402.96,-204.05 399.75,-200.84 399.75,-197.63 399.75,-197.63 399.75,-191.21 399.75,-191.21 399.75,-188.01 402.96,-184.8 406.17,-184.8 406.17,-184.8 490.33,-184.8 490.33,-184.8 493.54,-184.8 496.75,-188.01 496.75,-191.21 496.75,-191.21 496.75,-197.63 496.75,-197.63 496.75,-200.84 493.54,-204.05 490.33,-204.05"/>
<text xml:space="preserve" text-anchor="start" x="407.75" y="-191.5" font-family="Helvetica,sans-Serif" font-size="9.00">storage&#45;adapter.js</text>
</a>
</g>
</g>
<!-- public/src/core/config.js&#45;&gt;public/src/storage/storage&#45;adapter.js -->
<g id="edge15" class="edge">
<title>public/src/core/config.js&#45;&gt;public/src/storage/storage&#45;adapter.js</title>
<path fill="none" stroke="#000000" stroke-width="2" stroke-opacity="0.200000" d="M352.02,-207.73C363.36,-206.15 377.1,-204.23 390.56,-202.35"/>
<polygon fill="#000000" fill-opacity="0.200000" stroke="#000000" stroke-width="2" stroke-opacity="0.200000" points="390.69,-204.45 396.34,-201.54 390.11,-200.29 390.69,-204.45"/>
</g>
<!-- public/src/file&#45;system/file&#45;editor.js&#45;&gt;public/src/core/state.js -->
<g id="edge27" class="edge">
<title>public/src/file&#45;system/file&#45;editor.js&#45;&gt;public/src/core/state.js</title>
<path fill="none" stroke="#000000" stroke-width="2" stroke-opacity="0.200000" d="M219.84,-315.57C240.18,-301.24 278.13,-274.49 302.07,-257.62"/>
<polygon fill="#000000" fill-opacity="0.200000" stroke="#000000" stroke-width="2" stroke-opacity="0.200000" points="303.14,-259.43 306.83,-254.26 300.72,-256 303.14,-259.43"/>
</g>
<!-- public/src/file&#45;system/file&#45;editor.js&#45;&gt;public/src/core/config.js -->
<g id="edge26" class="edge">
<title>public/src/file&#45;system/file&#45;editor.js&#45;&gt;public/src/core/config.js</title>
<path fill="none" stroke="#000000" stroke-width="2" stroke-opacity="0.200000" d="M224.3,-315.4C236.39,-307.88 251.57,-296.48 260.5,-282.42 274.2,-260.86 256.01,-245.05 273.5,-226.42 277.64,-222.02 283.01,-218.89 288.69,-216.67"/>
<polygon fill="#000000" fill-opacity="0.200000" stroke="#000000" stroke-width="2" stroke-opacity="0.200000" points="289.15,-218.73 294.25,-214.93 287.9,-214.72 289.15,-218.73"/>
</g>
<!-- public/src/file&#45;system/file&#45;editor.js&#45;&gt;public/src/file&#45;system/file&#45;manager.js -->
<g id="edge31" class="edge">
<title>public/src/file&#45;system/file&#45;editor.js&#45;&gt;public/src/file&#45;system/file&#45;manager.js</title>
<g id="a_edge31"><a xlink:title="no&#45;circular">
<path fill="none" stroke="orange" stroke-width="2" d="M238.99,-321.33C247.04,-321.06 255.89,-320.92 264.74,-320.92"/>
<polygon fill="orange" stroke="orange" stroke-width="2" points="274.18,-323.13 280.2,-321.09 274.22,-318.93 274.18,-323.13"/>
<polyline fill="none" stroke="orange" stroke-width="2" points="273.2,-321.01 270.2,-320.98"/>
<ellipse fill="none" stroke="orange" stroke-width="2" cx="266.8" cy="-320.94" rx="2.4" ry="2.4"/>
</a>
</g>
<text xml:space="preserve" text-anchor="middle" x="236.64" y="-312.38" font-family="Helvetica,sans-Serif" font-size="9.00" fill="orange">no&#45;circular</text>
</g>
<!-- public/src/file&#45;system/file&#45;editor.js&#45;&gt;public/src/utils/markdown.js -->
<g id="edge30" class="edge">
<title>public/src/file&#45;system/file&#45;editor.js&#45;&gt;public/src/utils/markdown.js</title>
<path fill="none" stroke="#000000" stroke-width="2" stroke-opacity="0.200000" d="M238.97,-315.97C249.87,-313.3 262.12,-310.75 273.5,-309.42 322.17,-303.74 334.9,-305.6 383.75,-309.42 389.73,-309.89 396,-310.6 402.17,-311.44"/>
<polygon fill="#000000" fill-opacity="0.200000" stroke="#000000" stroke-width="2" stroke-opacity="0.200000" points="401.86,-313.51 408.1,-312.3 402.47,-309.36 401.86,-313.51"/>
</g>
<!-- public/src/ui/navigation.js -->
<g id="node10" class="node">
<title>public/src/ui/navigation.js</title>
<g id="a_node10"><a xlink:href="public/src/ui/navigation.js" xlink:title="navigation.js">
<path fill="#ffffcc" stroke="black" d="M354.71,-155.05C354.71,-155.05 294.54,-155.05 294.54,-155.05 291.33,-155.05 288.12,-151.84 288.12,-148.63 288.12,-148.63 288.12,-142.21 288.12,-142.21 288.12,-139.01 291.33,-135.8 294.54,-135.8 294.54,-135.8 354.71,-135.8 354.71,-135.8 357.92,-135.8 361.12,-139.01 361.12,-142.21 361.12,-142.21 361.12,-148.63 361.12,-148.63 361.12,-151.84 357.92,-155.05 354.71,-155.05"/>
<text xml:space="preserve" text-anchor="start" x="296.12" y="-142.5" font-family="Helvetica,sans-Serif" font-size="9.00">navigation.js</text>
</a>
</g>
</g>
<!-- public/src/file&#45;system/file&#45;editor.js&#45;&gt;public/src/ui/navigation.js -->
<g id="edge28" class="edge">
<title>public/src/file&#45;system/file&#45;editor.js&#45;&gt;public/src/ui/navigation.js</title>
<path fill="none" stroke="#000000" stroke-width="2" stroke-opacity="0.200000" d="M225.23,-315.31C237.41,-307.9 252.31,-296.65 260.5,-282.42 281.1,-246.63 254.07,-226.86 273.5,-190.42 279.79,-178.63 290.45,-168.4 300.33,-160.69"/>
<polygon fill="#000000" fill-opacity="0.200000" stroke="#000000" stroke-width="2" stroke-opacity="0.200000" points="301.29,-162.58 304.87,-157.33 298.8,-159.2 301.29,-162.58"/>
</g>
<!-- public/src/utils/dom&#45;helpers.js -->
<g id="node16" class="node">
<title>public/src/utils/dom&#45;helpers.js</title>
<g id="a_node16"><a xlink:href="public/src/utils/dom-helpers.js" xlink:title="dom&#45;helpers.js">
<path fill="#ffffcc" stroke="black" d="M482.83,-298.05C482.83,-298.05 413.67,-298.05 413.67,-298.05 410.46,-298.05 407.25,-294.84 407.25,-291.63 407.25,-291.63 407.25,-285.21 407.25,-285.21 407.25,-282.01 410.46,-278.8 413.67,-278.8 413.67,-278.8 482.83,-278.8 482.83,-278.8 486.04,-278.8 489.25,-282.01 489.25,-285.21 489.25,-285.21 489.25,-291.63 489.25,-291.63 489.25,-294.84 486.04,-298.05 482.83,-298.05"/>
<text xml:space="preserve" text-anchor="start" x="415.25" y="-285.5" font-family="Helvetica,sans-Serif" font-size="9.00">dom&#45;helpers.js</text>
</a>
</g>
</g>
<!-- public/src/file&#45;system/file&#45;editor.js&#45;&gt;public/src/utils/dom&#45;helpers.js -->
<g id="edge29" class="edge">
<title>public/src/file&#45;system/file&#45;editor.js&#45;&gt;public/src/utils/dom&#45;helpers.js</title>
<path fill="none" stroke="#000000" stroke-width="2" stroke-opacity="0.200000" d="M230.52,-315.4C243.16,-310.68 258.93,-305.44 273.5,-302.42 315.03,-293.83 363.15,-290.45 398.21,-289.15"/>
<polygon fill="#000000" fill-opacity="0.200000" stroke="#000000" stroke-width="2" stroke-opacity="0.200000" points="397.87,-291.26 403.8,-288.96 397.73,-287.06 397.87,-291.26"/>
</g>
<!-- public/src/file&#45;system/file&#45;manager.js&#45;&gt;public/src/core/state.js -->
<g id="edge33" class="edge">
<title>public/src/file&#45;system/file&#45;manager.js&#45;&gt;public/src/core/state.js</title>
<path fill="none" stroke="#000000" stroke-width="2" stroke-opacity="0.200000" d="M324.62,-315.45C324.62,-297.41 324.62,-279.37 324.62,-261.33"/>
<polygon fill="#000000" fill-opacity="0.200000" stroke="#000000" stroke-width="2" stroke-opacity="0.200000" points="326.73,-261.5 324.63,-255.5 322.53,-261.5 326.73,-261.5"/>
</g>
<!-- public/src/file&#45;system/file&#45;manager.js&#45;&gt;public/src/core/config.js -->
<g id="edge32" class="edge">
<title>public/src/file&#45;system/file&#45;manager.js&#45;&gt;public/src/core/config.js</title>
<path fill="none" stroke="#000000" stroke-width="2" stroke-opacity="0.200000" d="M283.28,-316.54C276.25,-312.88 270.19,-307.71 267,-300.42 260.94,-286.58 260.94,-246.26 267,-232.42 270.89,-223.54 279.31,-218.31 288.54,-215.27"/>
<polygon fill="#000000" fill-opacity="0.200000" stroke="#000000" stroke-width="2" stroke-opacity="0.200000" points="288.93,-217.34 294.21,-213.81 287.88,-213.28 288.93,-217.34"/>
</g>
<!-- public/src/file&#45;system/file&#45;manager.js&#45;&gt;public/src/file&#45;system/file&#45;editor.js -->
<g id="edge36" class="edge">
<title>public/src/file&#45;system/file&#45;manager.js&#45;&gt;public/src/file&#45;system/file&#45;editor.js</title>
<g id="a_edge36"><a xlink:title="no&#45;circular">
<path fill="none" stroke="orange" stroke-width="2" d="M283.23,-329.72C275,-329.91 266.24,-329.96 257.68,-329.89"/>
<polygon fill="orange" stroke="orange" stroke-width="2" points="248.06,-327.6 242.01,-329.58 247.97,-331.8 248.06,-327.6"/>
<polyline fill="none" stroke="orange" stroke-width="2" points="249.01,-329.72 252.01,-329.78"/>
<ellipse fill="none" stroke="orange" stroke-width="2" cx="255.41" cy="-329.85" rx="2.4" ry="2.4"/>
</a>
</g>
<text xml:space="preserve" text-anchor="middle" x="236.92" y="-332.62" font-family="Helvetica,sans-Serif" font-size="9.00" fill="orange">no&#45;circular</text>
</g>
<!-- public/src/file&#45;system/file&#45;manager.js&#45;&gt;public/src/ui/navigation.js -->
<g id="edge34" class="edge">
<title>public/src/file&#45;system/file&#45;manager.js&#45;&gt;public/src/ui/navigation.js</title>
<path fill="none" stroke="#000000" stroke-width="2" stroke-opacity="0.200000" d="M283.28,-316.54C276.25,-312.88 270.19,-307.71 267,-300.42 262.37,-289.84 262.37,-207.01 267,-196.42 273.52,-181.52 286.87,-169.26 299.08,-160.5"/>
<polygon fill="#000000" fill-opacity="0.200000" stroke="#000000" stroke-width="2" stroke-opacity="0.200000" points="300.17,-162.3 303.96,-157.2 297.81,-158.82 300.17,-162.3"/>
</g>
<!-- public/src/utils/helpers.js -->
<g id="node15" class="node">
<title>public/src/utils/helpers.js</title>
<g id="a_node15"><a xlink:href="public/src/utils/helpers.js" xlink:title="helpers.js">
<path fill="#ffffcc" stroke="black" d="M471.21,-267.05C471.21,-267.05 425.29,-267.05 425.29,-267.05 422.08,-267.05 418.88,-263.84 418.88,-260.63 418.88,-260.63 418.88,-254.21 418.88,-254.21 418.88,-251.01 422.08,-247.8 425.29,-247.8 425.29,-247.8 471.21,-247.8 471.21,-247.8 474.42,-247.8 477.62,-251.01 477.62,-254.21 477.62,-254.21 477.62,-260.63 477.62,-260.63 477.62,-263.84 474.42,-267.05 471.21,-267.05"/>
<text xml:space="preserve" text-anchor="start" x="426.88" y="-254.5" font-family="Helvetica,sans-Serif" font-size="9.00">helpers.js</text>
</a>
</g>
</g>
<!-- public/src/file&#45;system/file&#45;manager.js&#45;&gt;public/src/utils/helpers.js -->
<g id="edge35" class="edge">
<title>public/src/file&#45;system/file&#45;manager.js&#45;&gt;public/src/utils/helpers.js</title>
<path fill="none" stroke="#000000" stroke-width="2" stroke-opacity="0.200000" d="M341.29,-315.47C353.5,-307.33 370.55,-295.13 383.75,-282.42 387.85,-278.47 386.99,-275.54 391.75,-272.42 397.2,-268.85 403.49,-266.12 409.82,-264.04"/>
<polygon fill="#000000" fill-opacity="0.200000" stroke="#000000" stroke-width="2" stroke-opacity="0.200000" points="410.31,-266.09 415.51,-262.42 409.16,-262.05 410.31,-266.09"/>
</g>
<!-- public/src/core/app.js -->
<g id="node8" class="node">
<title>public/src/core/app.js</title>
<g id="a_node8"><a xlink:href="public/src/core/app.js" xlink:title="app.js">
<path fill="#ffffcc" stroke="black" d="M225.46,-252.05C225.46,-252.05 184.29,-252.05 184.29,-252.05 181.08,-252.05 177.88,-248.84 177.88,-245.63 177.88,-245.63 177.88,-239.21 177.88,-239.21 177.88,-236.01 181.08,-232.8 184.29,-232.8 184.29,-232.8 225.46,-232.8 225.46,-232.8 228.67,-232.8 231.88,-236.01 231.88,-239.21 231.88,-239.21 231.88,-245.63 231.88,-245.63 231.88,-248.84 228.67,-252.05 225.46,-252.05"/>
<text xml:space="preserve" text-anchor="start" x="191.38" y="-239.5" font-family="Helvetica,sans-Serif" font-size="9.00">app.js</text>
</a>
</g>
</g>
<!-- public/src/core/app.js&#45;&gt;public/src/api/client.js -->
<g id="edge8" class="edge">
<title>public/src/core/app.js&#45;&gt;public/src/api/client.js</title>
<path fill="none" stroke="#000000" stroke-width="2" stroke-opacity="0.200000" d="M217.87,-252.55C230.48,-263.87 249.93,-283.4 260.5,-304.42 272.96,-329.18 256.17,-343.79 273.5,-365.42 277.61,-370.56 283.13,-374.6 289.01,-377.75"/>
<polygon fill="#000000" fill-opacity="0.200000" stroke="#000000" stroke-width="2" stroke-opacity="0.200000" points="288.07,-379.63 294.39,-380.26 289.84,-375.82 288.07,-379.63"/>
</g>
<!-- public/src/core/app.js&#45;&gt;public/src/core/state.js -->
<g id="edge14" class="edge">
<title>public/src/core/app.js&#45;&gt;public/src/core/state.js</title>
<path fill="none" stroke="#000000" stroke-width="2" stroke-opacity="0.200000" d="M232.3,-242.42C248.97,-242.42 270.68,-242.42 288.75,-242.42"/>
<polygon fill="#000000" fill-opacity="0.200000" stroke="#000000" stroke-width="2" stroke-opacity="0.200000" points="288.26,-244.52 294.26,-242.42 288.26,-240.32 288.26,-244.52"/>
</g>
<!-- public/src/core/app.js&#45;&gt;public/src/api/message&#45;processor.js -->
<g id="edge9" class="edge">
<title>public/src/core/app.js&#45;&gt;public/src/api/message&#45;processor.js</title>
<path fill="none" stroke="#000000" stroke-width="2" stroke-opacity="0.200000" d="M187.7,-252.54C170.38,-263.98 145.11,-284.45 137.25,-310.42 134.09,-320.84 134.09,-349 137.25,-359.42 139.02,-365.25 142.47,-369.92 146.93,-373.65"/>
<polygon fill="#000000" fill-opacity="0.200000" stroke="#000000" stroke-width="2" stroke-opacity="0.200000" points="145.43,-375.17 151.58,-376.79 147.77,-371.69 145.43,-375.17"/>
</g>
<!-- public/src/core/app.js&#45;&gt;public/src/core/config.js -->
<g id="edge13" class="edge">
<title>public/src/core/app.js&#45;&gt;public/src/core/config.js</title>
<path fill="none" stroke="#000000" stroke-width="2" stroke-opacity="0.200000" d="M232.3,-235.46C248.97,-231.08 270.68,-225.36 288.75,-220.6"/>
<polygon fill="#000000" fill-opacity="0.200000" stroke="#000000" stroke-width="2" stroke-opacity="0.200000" points="289.09,-222.68 294.36,-219.13 288.02,-218.62 289.09,-222.68"/>
</g>
<!-- public/src/core/app.js&#45;&gt;public/src/file&#45;system/file&#45;manager.js -->
<g id="edge11" class="edge">
<title>public/src/core/app.js&#45;&gt;public/src/file&#45;system/file&#45;manager.js</title>
<path fill="none" stroke="#000000" stroke-width="2" stroke-opacity="0.200000" d="M219.84,-252.27C240.18,-266.61 278.13,-293.35 302.07,-310.23"/>
<polygon fill="#000000" fill-opacity="0.200000" stroke="#000000" stroke-width="2" stroke-opacity="0.200000" points="300.72,-311.84 306.83,-313.58 303.14,-308.41 300.72,-311.84"/>
</g>
<!-- public/src/events/event&#45;handlers.js -->
<g id="node9" class="node">
<title>public/src/events/event&#45;handlers.js</title>
<g id="a_node9"><a xlink:href="public/src/events/event-handlers.js" xlink:title="event&#45;handlers.js">
<path fill="#ffffcc" stroke="black" d="M118.83,-208.05C118.83,-208.05 38.42,-208.05 38.42,-208.05 35.21,-208.05 32,-204.84 32,-201.63 32,-201.63 32,-195.21 32,-195.21 32,-192.01 35.21,-188.8 38.42,-188.8 38.42,-188.8 118.83,-188.8 118.83,-188.8 122.04,-188.8 125.25,-192.01 125.25,-195.21 125.25,-195.21 125.25,-201.63 125.25,-201.63 125.25,-204.84 122.04,-208.05 118.83,-208.05"/>
<text xml:space="preserve" text-anchor="start" x="40" y="-195.5" font-family="Helvetica,sans-Serif" font-size="9.00">event&#45;handlers.js</text>
</a>
</g>
</g>
<!-- public/src/core/app.js&#45;&gt;public/src/events/event&#45;handlers.js -->
<g id="edge10" class="edge">
<title>public/src/core/app.js&#45;&gt;public/src/events/event&#45;handlers.js</title>
<path fill="none" stroke="#000000" stroke-width="2" stroke-opacity="0.200000" d="M177.62,-233.13C159.88,-226.84 136.19,-218.45 116.55,-211.5"/>
<polygon fill="#000000" fill-opacity="0.200000" stroke="#000000" stroke-width="2" stroke-opacity="0.200000" points="117.34,-209.55 110.98,-209.53 115.94,-213.51 117.34,-209.55"/>
</g>
<!-- public/src/core/app.js&#45;&gt;public/src/ui/navigation.js -->
<g id="edge12" class="edge">
<title>public/src/core/app.js&#45;&gt;public/src/ui/navigation.js</title>
<path fill="none" stroke="#000000" stroke-width="2" stroke-opacity="0.200000" d="M218.03,-232.41C238.57,-215.49 280.27,-181.14 304.67,-161.03"/>
<polygon fill="#000000" fill-opacity="0.200000" stroke="#000000" stroke-width="2" stroke-opacity="0.200000" points="305.72,-162.89 309.02,-157.45 303.05,-159.65 305.72,-162.89"/>
</g>
<!-- public/src/events/event&#45;handlers.js&#45;&gt;public/src/core/state.js -->
<g id="edge19" class="edge">
<title>public/src/events/event&#45;handlers.js&#45;&gt;public/src/core/state.js</title>
<path fill="none" stroke="#000000" stroke-width="2" stroke-opacity="0.200000" d="M125.56,-204.31C162.24,-209.31 214.88,-217.13 260.5,-226.42 269.73,-228.3 279.65,-230.66 288.82,-232.97"/>
<polygon fill="#000000" fill-opacity="0.200000" stroke="#000000" stroke-width="2" stroke-opacity="0.200000" points="288.07,-234.95 294.41,-234.41 289.12,-230.88 288.07,-234.95"/>
</g>
<!-- public/src/events/event&#45;handlers.js&#45;&gt;public/src/api/message&#45;processor.js -->
<g id="edge17" class="edge">
<title>public/src/events/event&#45;handlers.js&#45;&gt;public/src/api/message&#45;processor.js</title>
<path fill="none" stroke="#000000" stroke-width="2" stroke-opacity="0.200000" d="M85.96,-208.49C97.41,-227.19 121.46,-268.91 133.25,-307.42 140.87,-332.3 124.93,-345.15 141.25,-365.42 143.92,-368.74 147.12,-371.58 150.64,-374.02"/>
<polygon fill="#000000" fill-opacity="0.200000" stroke="#000000" stroke-width="2" stroke-opacity="0.200000" points="149.39,-375.72 155.64,-376.93 151.51,-372.09 149.39,-375.72"/>
</g>
<!-- public/src/events/event&#45;handlers.js&#45;&gt;public/src/core/config.js -->
<g id="edge18" class="edge">
<title>public/src/events/event&#45;handlers.js&#45;&gt;public/src/core/config.js</title>
<path fill="none" stroke="#000000" stroke-width="2" stroke-opacity="0.200000" d="M125.43,-197.41C162.05,-197.03 214.66,-197.43 260.5,-201.42 269.54,-202.21 279.24,-203.51 288.26,-204.92"/>
<polygon fill="#000000" fill-opacity="0.200000" stroke="#000000" stroke-width="2" stroke-opacity="0.200000" points="287.76,-206.97 294.02,-205.87 288.44,-202.82 287.76,-206.97"/>
</g>
<!-- public/src/events/event&#45;handlers.js&#45;&gt;public/src/file&#45;system/file&#45;editor.js -->
<g id="edge20" class="edge">
<title>public/src/events/event&#45;handlers.js&#45;&gt;public/src/file&#45;system/file&#45;editor.js</title>
<path fill="none" stroke="#000000" stroke-width="2" stroke-opacity="0.200000" d="M85.35,-208.31C95.28,-224.91 116.96,-258.88 141.25,-282.42 152.36,-293.19 166.44,-303.12 178.43,-310.71"/>
<polygon fill="#000000" fill-opacity="0.200000" stroke="#000000" stroke-width="2" stroke-opacity="0.200000" points="177.17,-312.41 183.38,-313.77 179.38,-308.83 177.17,-312.41"/>
</g>
<!-- public/src/events/event&#45;handlers.js&#45;&gt;public/src/file&#45;system/file&#45;manager.js -->
<g id="edge21" class="edge">
<title>public/src/events/event&#45;handlers.js&#45;&gt;public/src/file&#45;system/file&#45;manager.js</title>
<path fill="none" stroke="#000000" stroke-width="2" stroke-opacity="0.200000" d="M85.44,-208.31C96.25,-227.05 119.59,-269.3 133.25,-307.42 138.49,-322.04 129.08,-331.78 141.25,-341.42 185.45,-376.43 255.96,-355.24 295.09,-338.93"/>
<polygon fill="#000000" fill-opacity="0.200000" stroke="#000000" stroke-width="2" stroke-opacity="0.200000" points="295.49,-341.04 300.17,-336.74 293.83,-337.18 295.49,-341.04"/>
</g>
<!-- public/src/events/event&#45;handlers.js&#45;&gt;public/src/ui/navigation.js -->
<g id="edge24" class="edge">
<title>public/src/events/event&#45;handlers.js&#45;&gt;public/src/ui/navigation.js</title>
<path fill="none" stroke="#000000" stroke-width="2" stroke-opacity="0.200000" d="M84.81,-188.5C93.81,-172.52 113.98,-141.63 141.25,-129.42 189.12,-107.99 251.06,-120.84 289.03,-132.68"/>
<polygon fill="#000000" fill-opacity="0.200000" stroke="#000000" stroke-width="2" stroke-opacity="0.200000" points="287.99,-134.54 294.34,-134.4 289.28,-130.55 287.99,-134.54"/>
</g>
<!-- public/src/prompts/prompt&#45;ui.js -->
<g id="node13" class="node">
<title>public/src/prompts/prompt&#45;ui.js</title>
<g id="a_node13"><a xlink:href="public/src/prompts/prompt-ui.js" xlink:title="prompt&#45;ui.js">
<path fill="#ffffcc" stroke="black" d="M233.83,-86.05C233.83,-86.05 175.92,-86.05 175.92,-86.05 172.71,-86.05 169.5,-82.84 169.5,-79.63 169.5,-79.63 169.5,-73.21 169.5,-73.21 169.5,-70.01 172.71,-66.8 175.92,-66.8 175.92,-66.8 233.83,-66.8 233.83,-66.8 237.04,-66.8 240.25,-70.01 240.25,-73.21 240.25,-73.21 240.25,-79.63 240.25,-79.63 240.25,-82.84 237.04,-86.05 233.83,-86.05"/>
<text xml:space="preserve" text-anchor="start" x="177.5" y="-73.5" font-family="Helvetica,sans-Serif" font-size="9.00">prompt&#45;ui.js</text>
</a>
</g>
</g>
<!-- public/src/events/event&#45;handlers.js&#45;&gt;public/src/prompts/prompt&#45;ui.js -->
<g id="edge22" class="edge">
<title>public/src/events/event&#45;handlers.js&#45;&gt;public/src/prompts/prompt&#45;ui.js</title>
<path fill="none" stroke="#000000" stroke-width="2" stroke-opacity="0.200000" d="M85.75,-188.49C95.94,-172.5 117.58,-140.59 141.25,-118.42 152.38,-108 166.35,-98.37 178.27,-90.96"/>
<polygon fill="#000000" fill-opacity="0.200000" stroke="#000000" stroke-width="2" stroke-opacity="0.200000" points="179.12,-92.9 183.16,-88 176.94,-89.31 179.12,-92.9"/>
</g>
<!-- public/src/ui/modals.js -->
<g id="node14" class="node">
<title>public/src/ui/modals.js</title>
<g id="a_node14"><a xlink:href="public/src/ui/modals.js" xlink:title="modals.js">
<path fill="#ffffcc" stroke="black" d="M227.46,-155.05C227.46,-155.05 182.29,-155.05 182.29,-155.05 179.08,-155.05 175.88,-151.84 175.88,-148.63 175.88,-148.63 175.88,-142.21 175.88,-142.21 175.88,-139.01 179.08,-135.8 182.29,-135.8 182.29,-135.8 227.46,-135.8 227.46,-135.8 230.67,-135.8 233.88,-139.01 233.88,-142.21 233.88,-142.21 233.88,-148.63 233.88,-148.63 233.88,-151.84 230.67,-155.05 227.46,-155.05"/>
<text xml:space="preserve" text-anchor="start" x="183.88" y="-142.5" font-family="Helvetica,sans-Serif" font-size="9.00">modals.js</text>
</a>
</g>
</g>
<!-- public/src/events/event&#45;handlers.js&#45;&gt;public/src/ui/modals.js -->
<g id="edge23" class="edge">
<title>public/src/events/event&#45;handlers.js&#45;&gt;public/src/ui/modals.js</title>
<path fill="none" stroke="#000000" stroke-width="2" stroke-opacity="0.200000" d="M103.29,-188.33C122.81,-180 150.67,-168.12 172.13,-158.96"/>
<polygon fill="#000000" fill-opacity="0.200000" stroke="#000000" stroke-width="2" stroke-opacity="0.200000" points="172.82,-160.95 177.52,-156.67 171.17,-157.09 172.82,-160.95"/>
</g>
<!-- public/src/events/event&#45;handlers.js&#45;&gt;public/src/utils/helpers.js -->
<g id="edge25" class="edge">
<title>public/src/events/event&#45;handlers.js&#45;&gt;public/src/utils/helpers.js</title>
<path fill="none" stroke="#000000" stroke-width="2" stroke-opacity="0.200000" d="M80.45,-188.61C83.27,-161.88 95.11,-87.56 141.25,-55.42 229.73,6.2 305.89,26.16 383.75,-48.42 398.69,-62.73 379.89,-217.47 391.75,-234.42 396.36,-241.01 403.23,-245.72 410.58,-249.08"/>
<polygon fill="#000000" fill-opacity="0.200000" stroke="#000000" stroke-width="2" stroke-opacity="0.200000" points="409.48,-250.91 415.83,-251.12 411,-246.99 409.48,-250.91"/>
</g>
<!-- public/src/ui/navigation.js&#45;&gt;public/src/api/client.js -->
<g id="edge45" class="edge">
<title>public/src/ui/navigation.js&#45;&gt;public/src/api/client.js</title>
<path fill="none" stroke="#000000" stroke-width="2" stroke-opacity="0.200000" d="M306.46,-155.5C292.71,-164.29 274.88,-178.43 267,-196.42 259.74,-213.01 259.74,-342.83 267,-359.42 271.13,-368.86 279.74,-375.27 289.08,-379.59"/>
<polygon fill="#000000" fill-opacity="0.200000" stroke="#000000" stroke-width="2" stroke-opacity="0.200000" points="288.21,-381.51 294.56,-381.77 289.76,-377.6 288.21,-381.51"/>
</g>
<!-- public/src/ui/navigation.js&#45;&gt;public/src/core/state.js -->
<g id="edge47" class="edge">
<title>public/src/ui/navigation.js&#45;&gt;public/src/core/state.js</title>
<path fill="none" stroke="#000000" stroke-width="2" stroke-opacity="0.200000" d="M306.46,-155.5C292.71,-164.29 274.88,-178.43 267,-196.42 262.54,-206.6 262.54,-211.24 267,-221.42 270.89,-230.31 279.31,-235.53 288.54,-238.57"/>
<polygon fill="#000000" fill-opacity="0.200000" stroke="#000000" stroke-width="2" stroke-opacity="0.200000" points="287.88,-240.57 294.21,-240.03 288.93,-236.5 287.88,-240.57"/>
</g>
<!-- public/src/ui/navigation.js&#45;&gt;public/src/core/config.js -->
<g id="edge46" class="edge">
<title>public/src/ui/navigation.js&#45;&gt;public/src/core/config.js</title>
<path fill="none" stroke="#000000" stroke-width="2" stroke-opacity="0.200000" d="M324.62,-155.48C324.62,-167.79 324.62,-180.1 324.62,-192.41"/>
<polygon fill="#000000" fill-opacity="0.200000" stroke="#000000" stroke-width="2" stroke-opacity="0.200000" points="322.53,-192.34 324.63,-198.34 326.73,-192.34 322.53,-192.34"/>
</g>
<!-- public/src/prompts/prompt&#45;manager.js&#45;&gt;public/src/core/state.js -->
<g id="edge39" class="edge">
<title>public/src/prompts/prompt&#45;manager.js&#45;&gt;public/src/core/state.js</title>
<g id="a_edge39"><a xlink:title="no&#45;circular">
<path fill="none" stroke="orange" stroke-width="2" d="M307.92,-86.45C294.05,-95.85 275.29,-111.3 267,-130.42 258.96,-148.98 258.89,-202.9 267,-221.42 269.54,-227.23 274.01,-231.47 279.38,-234.56"/>
<polygon fill="orange" stroke="orange" stroke-width="2" points="287.93,-239.78 294.29,-239.79 289.32,-235.82 287.93,-239.78"/>
<polyline fill="none" stroke="orange" stroke-width="2" points="287.68,-237.47 284.85,-236.48"/>
<ellipse fill="none" stroke="orange" stroke-width="2" cx="281.64" cy="-235.35" rx="2.4" ry="2.4"/>
</a>
</g>
<text xml:space="preserve" text-anchor="middle" x="285.8" y="-157.92" font-family="Helvetica,sans-Serif" font-size="9.00" fill="orange">no&#45;circular</text>
</g>
<!-- public/src/prompts/prompt&#45;ui.js&#45;&gt;public/src/core/state.js -->
<g id="edge41" class="edge">
<title>public/src/prompts/prompt&#45;ui.js&#45;&gt;public/src/core/state.js</title>
<path fill="none" stroke="#000000" stroke-width="2" stroke-opacity="0.200000" d="M222.68,-86.37C235.31,-94.82 251.86,-108.14 260.5,-124.42 282.12,-165.18 243.68,-192.21 273.5,-227.42 277.48,-232.13 282.88,-235.39 288.65,-237.65"/>
<polygon fill="#000000" fill-opacity="0.200000" stroke="#000000" stroke-width="2" stroke-opacity="0.200000" points="288.03,-239.65 294.38,-239.4 289.25,-235.63 288.03,-239.65"/>
</g>
<!-- public/src/prompts/prompt&#45;ui.js&#45;&gt;public/src/core/config.js -->
<g id="edge40" class="edge">
<title>public/src/prompts/prompt&#45;ui.js&#45;&gt;public/src/core/config.js</title>
<path fill="none" stroke="#000000" stroke-width="2" stroke-opacity="0.200000" d="M222.05,-86.41C234.5,-94.96 251.12,-108.41 260.5,-124.42 274.51,-148.34 256.7,-163.37 273.5,-185.42 277.68,-190.9 283.34,-195.34 289.36,-198.88"/>
<polygon fill="#000000" fill-opacity="0.200000" stroke="#000000" stroke-width="2" stroke-opacity="0.200000" points="288.11,-200.6 294.4,-201.51 290.06,-196.88 288.11,-200.6"/>
</g>
<!-- public/src/prompts/prompt&#45;ui.js&#45;&gt;public/src/prompts/prompt&#45;manager.js -->
<g id="edge43" class="edge">
<title>public/src/prompts/prompt&#45;ui.js&#45;&gt;public/src/prompts/prompt&#45;manager.js</title>
<path fill="none" stroke="#000000" stroke-width="2" stroke-opacity="0.200000" d="M240.57,-76.42C248.04,-76.42 256.14,-76.42 264.26,-76.42"/>
<polygon fill="#000000" fill-opacity="0.200000" stroke="#000000" stroke-width="2" stroke-opacity="0.200000" points="264.01,-78.52 270.01,-76.42 264.01,-74.32 264.01,-78.52"/>
</g>
<!-- public/src/prompts/prompt&#45;ui.js&#45;&gt;public/src/utils/dom&#45;helpers.js -->
<g id="edge42" class="edge">
<title>public/src/prompts/prompt&#45;ui.js&#45;&gt;public/src/utils/dom&#45;helpers.js</title>
<path fill="none" stroke="#000000" stroke-width="2" stroke-opacity="0.200000" d="M240.59,-67.35C286.52,-56.32 363.99,-41.39 383.75,-60.42 400.81,-76.85 377,-254.89 391.75,-273.42 393.83,-276.04 396.32,-278.22 399.06,-280.05"/>
<polygon fill="#000000" fill-opacity="0.200000" stroke="#000000" stroke-width="2" stroke-opacity="0.200000" points="397.88,-281.8 404.17,-282.7 399.81,-278.07 397.88,-281.8"/>
</g>
<!-- public/src/ui/modals.js&#45;&gt;public/src/ui/navigation.js -->
<g id="edge44" class="edge">
<title>public/src/ui/modals.js&#45;&gt;public/src/ui/navigation.js</title>
<path fill="none" stroke="#000000" stroke-width="2" stroke-opacity="0.200000" d="M234.08,-145.42C247.62,-145.42 264.15,-145.42 279.31,-145.42"/>
<polygon fill="#000000" fill-opacity="0.200000" stroke="#000000" stroke-width="2" stroke-opacity="0.200000" points="279.02,-147.52 285.02,-145.42 279.02,-143.32 279.02,-147.52"/>
</g>
<!-- public/src/migration/data&#45;migrator.js -->
<g id="node17" class="node">
<title>public/src/migration/data&#45;migrator.js</title>
<g id="a_node17"><a xlink:href="public/src/migration/data-migrator.js" xlink:title="data&#45;migrator.js">
<path fill="#ffffcc" stroke="black" d="M115.83,-338.05C115.83,-338.05 41.42,-338.05 41.42,-338.05 38.21,-338.05 35,-334.84 35,-331.63 35,-331.63 35,-325.21 35,-325.21 35,-322.01 38.21,-318.8 41.42,-318.8 41.42,-318.8 115.83,-318.8 115.83,-318.8 119.04,-318.8 122.25,-322.01 122.25,-325.21 122.25,-325.21 122.25,-331.63 122.25,-331.63 122.25,-334.84 119.04,-338.05 115.83,-338.05"/>
<text xml:space="preserve" text-anchor="start" x="43" y="-325.5" font-family="Helvetica,sans-Serif" font-size="9.00">data&#45;migrator.js</text>
</a>
</g>
</g>
<!-- public/src/migration/data&#45;migrator.js&#45;&gt;public/src/api/message&#45;processor.js -->
<g id="edge37" class="edge">
<title>public/src/migration/data&#45;migrator.js&#45;&gt;public/src/api/message&#45;processor.js</title>
<path fill="none" stroke="#000000" stroke-width="2" stroke-opacity="0.200000" d="M94.38,-338.36C106.6,-346.33 124.59,-357.45 141.25,-365.42 148.62,-368.95 156.67,-372.27 164.48,-375.25"/>
<polygon fill="#000000" fill-opacity="0.200000" stroke="#000000" stroke-width="2" stroke-opacity="0.200000" points="163.62,-377.17 169.98,-377.28 165.08,-373.23 163.62,-377.17"/>
</g>
<!-- public/src/migration/data&#45;migrator.js&#45;&gt;public/src/core/config.js -->
<g id="edge38" class="edge">
<title>public/src/migration/data&#45;migrator.js&#45;&gt;public/src/core/config.js</title>
<path fill="none" stroke="#000000" stroke-width="2" stroke-opacity="0.200000" d="M85.5,-318.43C100.46,-293.02 138.99,-227.82 141.25,-226.42 165.05,-211.68 242.52,-210.12 288.48,-210.59"/>
<polygon fill="#000000" fill-opacity="0.200000" stroke="#000000" stroke-width="2" stroke-opacity="0.200000" points="288.18,-212.69 294.2,-210.67 288.23,-208.49 288.18,-212.69"/>
</g>
</g>
</svg>
